<svg width="279" height="50" viewBox="0 0 279 50" fill="none" xmlns="http://www.w3.org/2000/svg">
<g clip-path="url(#clip0_9_31)">
<path d="M259.479 24.3236C261.252 23.9184 263.105 24.0427 264.809 24.6807C266.512 25.3189 267.991 26.4429 269.059 27.9125L252.477 31.6529C253.048 28.1529 255.725 25.1695 259.479 24.3236ZM269.152 38.0875C267.839 39.9802 265.861 41.3093 263.607 41.8084C259.832 42.6611 256.062 41.1 253.987 38.1611L270.62 34.4084L273.329 33.7973L278.511 32.6291C278.479 31.5193 278.334 30.4154 278.079 29.3348C275.97 20.4098 266.857 14.8458 257.727 16.9056C248.595 18.9666 242.9 27.8723 245.009 36.7959C247.116 45.7209 256.229 51.2861 265.361 49.2264C270.741 48.0111 274.927 44.4209 277.027 39.85L269.152 38.0875ZM230.009 48.775V25.1139H224.887V17.0528H230.009V5.95696H238.707V17.0528H245.239V25.1139H238.707V48.775H230.009ZM213.395 48.775H221.795V17.0528H213.395V48.775ZM212.304 5.92362C212.304 2.98752 214.625 0.784732 217.63 0.784732C220.634 0.784732 222.887 2.98752 222.887 5.92362C222.887 8.86112 220.634 11.1292 217.63 11.1292C214.625 11.1292 212.304 8.86112 212.304 5.92362ZM210.471 17.1417C206.179 17.3639 203.645 18.0209 201.07 19.882V17.0528H192.675V48.775H201.068V33.2195C201.068 28.325 202.266 25.5404 210.471 25.2666V17.1417ZM163.671 33.4125C163.879 38.0416 167.92 41.9236 172.866 41.9236C177.883 41.9236 181.993 37.8375 181.993 33.0041C181.993 28.2375 177.883 24.1529 172.866 24.1529C167.921 24.1529 163.879 28.1014 163.671 32.6639V33.4125ZM155.481 48.775V1.91668L163.879 0.0222321V19.4139C166.474 17.3445 169.548 16.4764 172.894 16.4764C182.455 16.4764 190.104 23.818 190.104 33.0291C190.104 42.1723 182.455 49.6473 172.894 49.6473C169.548 49.6473 166.474 48.7805 163.879 46.7111V48.7764L155.481 48.775ZM137.603 48.775V24.9514H132.482V17.0528H137.603V5.94862L146.3 3.98612V17.0528H152.833V24.9514H146.3V48.775H137.603ZM122.212 48.775V31.8264C122.212 25.6861 118.865 24.3514 115.518 24.3514C112.172 24.3514 108.827 25.6195 108.827 31.693V48.775H100.428V17.0528H108.827V19.4125C110.669 18.0779 112.923 16.475 117.364 16.475C124.464 16.475 130.611 20.5473 130.611 30.4916V48.775H122.212ZM79.1575 24.3236C82.9098 23.4764 86.6537 25.0111 88.7375 27.9125L72.157 31.6529C72.728 28.1529 75.4064 25.1695 79.1575 24.3236ZM88.8309 38.0875C87.5194 39.9802 85.5394 41.3093 83.2873 41.8084C81.5018 42.2161 79.635 42.0873 77.9228 41.4382C76.2107 40.7891 74.7296 39.6487 73.6668 38.1611L90.3003 34.4084L93.0094 33.7973L98.1894 32.6291C98.1582 31.5193 98.0134 30.4154 97.7577 29.3348C95.6489 20.4098 86.5368 14.8458 77.4053 16.9056C68.2737 18.9666 62.5796 27.8723 64.6886 36.7959C66.7973 45.7209 75.9078 51.2861 85.0409 49.2264C90.4216 48.0111 94.6069 44.4209 96.7061 39.85L88.8309 38.0875ZM44.9028 48.775L31.8589 17.0528H41.01L49.2737 38.5666L57.6044 17.0528H66.7555L53.7127 48.775H44.9028ZM15.3911 24.3154C17.1651 23.91 19.0194 24.0341 20.7234 24.6723C22.4271 25.3105 23.9048 26.4345 24.9725 27.9041L8.39057 31.6459C8.96165 28.1459 11.6401 25.1625 15.3911 24.3154ZM25.0644 38.0791C23.7534 39.9725 21.7732 41.302 19.5209 41.8014C15.7463 42.6529 11.9772 41.093 9.90043 38.1541L26.5339 34.4014L29.243 33.7904L34.423 32.6209C34.3916 31.5114 34.2468 30.408 33.9912 29.3279C31.8825 20.4029 22.7718 14.8375 13.6389 16.8972C4.50729 18.9584 -1.18392 27.8654 0.922076 36.7904C3.03086 45.7154 12.1429 51.2791 21.2744 49.2195C26.6552 48.0055 30.8407 44.4139 32.9411 39.8445L25.0644 38.0791Z" fill="#65658E"/>
</g>
<defs>
<clipPath id="clip0_9_31">
<rect width="278.571" height="50" fill="white"/>
</clipPath>
</defs>
</svg>
