<svg width="614" height="301" viewBox="0 0 614 301" fill="none" xmlns="http://www.w3.org/2000/svg">
<path d="M242 150C242 67.1573 309.157 0 392 0V0C474.843 0 542 67.1573 542 150V150C542 232.843 474.843 300 392 300H242V150Z" fill="white"/>
<path fill-rule="evenodd" clip-rule="evenodd" d="M477.049 160.562H474.541C470.545 160.562 468.46 163.783 468.46 166.855V180.75H461.363V154.409H468.085L468.229 157.697C469.644 155.444 472.114 154.409 475.152 154.409H477.565L477.049 160.557V160.562Z" fill="#002856"/>
<path fill-rule="evenodd" clip-rule="evenodd" d="M428.359 180.75H421.248V166.826C421.248 163.908 420.998 160.239 416.905 160.239C412.813 160.239 411.388 163.085 411.388 166.412V180.75H404.281V154.409H410.868L411.017 157.774C412.432 155.521 415.061 153.769 418.937 153.769C426.092 153.769 428.354 158.887 428.354 164.212V180.75" fill="#002856"/>
<path fill-rule="evenodd" clip-rule="evenodd" d="M401.19 174.596L400.694 180.586C398.99 181.053 397.478 181.212 395.653 181.212C388.961 181.212 387.016 178.135 387.016 171.963V146.989H394.122V154.413H401.19L400.694 160.562H394.122V171.428C394.122 173.903 394.796 175.242 397.343 175.242C398.436 175.242 399.673 175.112 401.19 174.596" fill="#002856"/>
<path fill-rule="evenodd" clip-rule="evenodd" d="M384.132 160.562H382.201C378.205 160.562 376.212 163.773 376.212 166.855V180.75H369.115V154.409H375.841L375.986 157.697C377.401 155.444 379.866 154.409 382.919 154.409H384.686L384.137 160.557L384.132 160.562Z" fill="#002856"/>
<path fill-rule="evenodd" clip-rule="evenodd" d="M337.053 177.837C332.238 180.418 327.424 181.9 321.068 181.717C309.282 181.356 300.779 174.028 300.779 161.655C300.779 149.281 309.364 141.453 321.068 141.274C327.005 141.183 332.315 142.69 336.465 146.359L331.468 151.424C328.897 149.233 325.122 147.948 320.606 148.155C313.24 148.492 308.796 153.86 308.699 161.231C308.603 169.214 313.495 174.722 321.14 174.924C324.742 175.015 327.313 174.529 329.547 173.528V165.362H321.603L322.137 158.66H337.058V177.837" fill="#002856"/>
<path fill-rule="evenodd" clip-rule="evenodd" d="M458.19 170.081H438.715C439.269 173.446 441.912 175.468 445.2 175.564C448.397 175.656 450.184 174.679 452.524 172.31L457.16 175.849C453.867 179.912 449.919 181.4 445.412 181.4C437.492 181.4 431.561 175.849 431.561 167.577C431.561 159.305 437.463 153.769 445.119 153.769C453.554 153.769 458.19 158.887 458.19 167.972V170.076V170.081ZM451.069 164.577C450.853 161.255 448.359 159.147 444.936 159.281C441.484 159.411 439.187 161.66 438.71 164.577H451.065H451.069Z" fill="#002856"/>
<path fill-rule="evenodd" clip-rule="evenodd" d="M364.641 163.504V180.75H358.372L358.218 178.15C356.297 180.533 353.172 181.4 349.966 181.4C345.132 181.4 340.558 179.002 340.466 173.446C340.322 164.703 350.293 164.077 356.552 164.077H357.809V163.735C357.809 160.846 355.893 159.281 352.301 159.281C349.715 159.281 347.168 160.321 345.281 162.088L341.179 157.914C344.901 154.895 348.772 153.769 352.903 153.769C361.049 153.769 364.641 157.538 364.641 163.504V163.504ZM357.809 169.257H356.812C353.451 169.277 347.549 169.44 347.568 172.96C347.607 177.914 357.809 176.349 357.809 170.36V169.257Z" fill="#002856"/>
<path fill-rule="evenodd" clip-rule="evenodd" d="M472.215 178.718C472.215 176.552 473.828 174.915 475.898 174.915C477.968 174.915 479.547 176.552 479.547 178.718C479.547 180.885 477.939 182.551 475.898 182.551C473.856 182.551 472.215 180.923 472.215 178.718ZM475.898 183.307C478.353 183.307 480.457 181.371 480.457 178.718C480.457 176.065 478.353 174.159 475.898 174.159C473.442 174.159 471.305 176.094 471.305 178.718C471.305 181.342 473.409 183.307 475.898 183.307ZM474.94 179.089H475.85L477.227 181.376H478.108L476.63 179.05C477.395 178.954 477.983 178.54 477.983 177.596C477.983 176.556 477.366 176.099 476.134 176.099H474.155V181.376H474.94V179.089V179.089ZM474.94 178.4V176.773H476.018C476.567 176.773 477.154 176.893 477.154 177.543C477.154 178.357 476.548 178.4 475.888 178.4H474.94Z" fill="#002856"/>
<path d="M600.173 224.214C606.711 230.811 611.158 239.48 612.545 249.12C612.849 251.23 613.059 253.359 613.059 255.546C613.059 257.086 612.983 258.607 612.83 260.09C612.45 263.778 611.576 267.314 610.36 270.68C609.771 272.296 609.105 273.874 608.345 275.395C606.198 279.71 603.404 283.646 600.021 287.011C596.638 290.395 592.704 293.171 588.39 295.339C586.869 296.099 585.292 296.764 583.657 297.354C580.294 298.571 576.759 299.445 573.072 299.825C571.57 299.978 570.05 300.054 568.51 300.054L560.167 300.054L546.255 300.054L524 300.054L524 255.508C524 243.226 528.979 232.104 537.038 224.042C545.115 215.981 556.252 211 568.529 211C571.19 211 573.794 211.285 576.321 211.722C585.406 213.339 593.559 217.673 599.85 223.89C599.907 223.947 599.964 223.985 600.002 224.042C600.059 224.099 600.097 224.157 600.154 224.195" fill="#60A3F4"/>
<path d="M124.089 195.629C133.115 186.684 144.976 180.6 158.163 178.702C161.05 178.286 163.964 178 166.955 178C169.062 178 171.143 178.104 173.171 178.312C178.217 178.832 183.055 180.028 187.659 181.692C189.87 182.498 192.029 183.408 194.11 184.448C200.014 187.386 205.399 191.208 210.003 195.837C214.632 200.465 218.43 205.847 221.395 211.749C222.436 213.829 223.346 215.987 224.152 218.223C225.817 222.826 227.014 227.662 227.534 232.706C227.742 234.76 227.846 236.84 227.846 238.946L227.846 250.361L227.846 269.394L227.846 299.841L166.903 299.841C150.1 299.841 134.884 293.029 123.855 282.004C112.827 270.954 106.012 255.717 106.012 238.92C106.012 235.28 106.402 231.718 107 228.26C109.211 215.831 115.141 204.677 123.647 196.071C123.725 195.993 123.777 195.915 123.855 195.863C123.933 195.785 124.011 195.733 124.063 195.655" fill="#64D898"/>
<path d="M12.8856 286.665C6.34779 280.068 1.90056 271.398 0.513177 261.759C0.209093 259.649 3.85391e-05 257.52 3.85651e-05 255.333C3.85835e-05 253.793 0.076054 252.272 0.228096 250.789C0.608201 247.101 1.48244 243.564 2.69878 240.199C3.28794 238.583 3.95313 237.005 4.71334 235.484C6.86093 231.168 9.65471 227.233 13.0376 223.868C16.4206 220.484 20.3546 217.708 24.6688 215.54C26.1893 214.78 27.7667 214.114 29.4011 213.525C32.7651 212.308 36.3 211.434 39.9871 211.053C41.4885 210.901 43.0089 210.825 44.5483 210.825L52.8916 210.825L66.8035 210.825L89.0586 210.825L89.0586 255.371C89.0586 267.653 84.0792 278.775 76.021 286.836C67.9438 294.898 56.8067 299.879 44.5293 299.879C41.8686 299.879 39.2649 299.594 36.7372 299.156C27.6527 297.54 19.4994 293.206 13.2087 286.989C13.1517 286.932 13.0946 286.894 13.0566 286.836C12.9996 286.779 12.9616 286.722 12.9046 286.684" fill="#FFD280"/>
</svg>
