<svg width="250" height="50" viewBox="0 0 250 50" fill="none" xmlns="http://www.w3.org/2000/svg">
<g clip-path="url(#clip0_9_33)">
<path d="M6.45882 0.62075C5.79318 0.206057 5.06297 0 4.13405 0C3.13807 0 2.34078 0.206057 1.74222 0.62075C1.14612 1.03287 0.813293 1.58407 0.813293 2.27437V47.6587C0.813293 48.2098 1.14612 48.7612 1.74222 49.2428C2.40785 49.7245 3.13807 50 4.06698 50C4.89903 50.0027 5.71122 49.7372 6.39177 49.2428C7.05493 48.7612 7.38775 48.2098 7.38775 47.6587V2.27437C7.4548 1.58407 7.12198 1.03287 6.45882 0.62075ZM11.9702 24.4487C11.5728 24.8635 11.3717 25.4147 11.5058 26.2388C11.5728 27.0657 11.9032 27.823 12.5688 28.5133C13.1649 29.201 13.8951 29.6827 14.6924 29.8913C15.4897 30.0973 16.0883 29.9583 16.4857 29.6157L20.0052 27.3413V47.6587C20.0052 48.2098 20.3378 48.7612 20.9367 49.2428C21.5327 49.7245 22.3298 50 23.2587 50C24.1902 50 24.9875 49.7245 25.6507 49.2428C26.3137 48.7612 26.6467 48.2098 26.6467 47.6587V20.2478C26.6467 19.56 26.3137 19.0783 25.6507 18.6637C24.9875 18.2517 24.1902 18.0455 23.1943 18.0455C22.1982 18.0455 21.468 18.2517 20.8695 18.6637L11.9702 24.4487ZM38.2008 40.4955C38.2008 41.8735 38.6008 42.976 39.331 43.6637C40.0612 44.354 41.0573 44.7662 42.252 44.7662C43.8465 44.7662 45.374 44.0783 46.7698 42.7003C48.2303 41.3223 48.9605 39.8078 48.9605 38.2237V35.813H47.3658C45.5082 35.813 43.9807 35.8823 42.7833 36.0885C41.5887 36.2947 40.5257 36.7093 39.5968 37.4665C38.6678 38.1543 38.2008 39.187 38.2008 40.4955ZM31.562 41.3223C31.562 37.809 32.8237 35.4007 35.3472 34.0228C37.8707 32.6448 41.4572 31.957 46.2383 31.957H48.9605V30.7155C48.9605 28.7193 48.429 27.0657 47.433 25.6207C46.437 24.1732 44.8425 23.4855 42.7833 23.4855C40.9902 23.4855 39.3982 23.8305 38.0693 24.588C36.7405 25.2755 35.9432 25.6903 35.8117 25.6903C35.0815 25.6903 34.5498 25.3452 34.0853 24.588C33.6208 23.8977 33.4198 23.0707 33.4198 22.177C33.4198 21.0747 34.4157 20.0417 36.4748 19.215C38.4668 18.3882 40.6598 17.976 42.9177 17.976C47.2343 17.976 50.4208 19.215 52.48 21.6257C54.539 24.0367 55.602 27.0657 55.602 30.7155V47.1073C55.602 47.7282 55.2693 48.2795 54.6707 48.6915C54.0745 49.1732 53.2773 49.3793 52.4128 49.3793C51.551 49.3793 50.8853 49.1732 50.2893 48.6915C49.6907 48.2098 49.425 47.7282 49.425 47.1073V44.8357C46.6357 48.2098 43.4492 49.9303 39.9943 49.9303C37.5378 49.9303 35.5458 49.1732 34.0183 47.7282C32.3593 46.2807 31.562 44.1453 31.562 41.3223ZM61.2475 36.9848V31.0607C61.2475 27.2048 62.308 24.0367 64.5012 21.6257C66.692 19.215 69.8785 18.0455 74.1953 18.0455C76.92 18.0455 79.1777 18.5272 81.0355 19.4905C82.8958 20.4538 83.8248 21.5563 83.8248 22.7978C83.8248 23.555 83.5615 24.3122 83.03 25C82.4983 25.7572 81.8998 26.1023 81.1697 26.1023C80.9708 26.1023 80.2407 25.7572 78.912 25.139C77.6502 24.5183 76.2543 24.1732 74.6622 24.1732C70.0798 24.1732 67.755 26.4477 67.755 31.0607V36.9153C67.755 41.5285 70.0797 43.8028 74.7268 43.8028C76.3215 43.8028 77.7172 43.4577 79.0435 42.77C80.3053 42.0797 81.1025 41.7345 81.3013 41.7345C82.1655 41.7345 82.8288 42.0797 83.3603 42.77C83.8918 43.4577 84.1575 44.215 84.1575 44.9722C84.1575 46.2112 83.2285 47.3135 81.3013 48.3463C79.3765 49.3793 77.0517 49.9303 74.2623 49.9303C69.9455 49.9303 66.692 48.7612 64.5012 46.3502C62.3752 44.0783 61.2475 40.9102 61.2475 36.9848ZM89.0058 47.177V2.20482C89.0058 1.5171 89.2717 1.03287 89.8702 0.62075C90.4663 0.206057 91.1965 0 92.1925 0C93.124 0 93.9857 0.206057 94.5843 0.62075C95.2475 1.03287 95.5802 1.58407 95.5802 2.20482V31.3363L108.662 18.8028C109.062 18.3882 109.527 18.182 110.058 18.182C110.788 18.182 111.451 18.5272 112.184 19.215C112.914 19.9052 113.245 20.6623 113.245 21.4198C113.245 21.971 113.046 22.4527 112.713 22.8648L104.611 30.373L114.442 45.1783C114.708 45.593 114.839 45.9355 114.839 46.3502C114.839 47.1073 114.442 47.9343 113.578 48.6915C112.713 49.4487 111.918 49.8635 111.121 49.8635C110.391 49.8635 109.859 49.5183 109.395 48.8977L100.163 34.7105L95.5802 39.0505V47.2465C95.5802 47.7952 95.2475 48.3463 94.5843 48.828C93.921 49.3122 93.124 49.5183 92.1925 49.5183C91.2635 49.5183 90.5332 49.3122 89.9347 48.828C89.3385 48.2795 89.0058 47.7282 89.0058 47.177ZM123.87 31.4057H134.297C135.228 31.4057 135.824 31.2667 136.157 30.9912C136.49 30.7155 136.622 30.2338 136.622 29.407C136.622 27.6865 136.025 26.2388 134.828 25C133.633 23.8305 132.106 23.2098 130.313 23.2098C128.587 23.2098 127.059 23.7612 125.797 24.9303C124.536 26.1023 123.937 27.5473 123.937 29.2705V31.4057H123.87ZM117.296 36.9848V30.785C117.296 27.3413 118.557 24.3818 121.148 21.8318C123.671 19.354 126.793 18.0455 130.38 18.0455C133.832 18.0455 136.756 19.215 139.212 21.4198C141.668 23.6915 142.866 26.5145 142.866 30.0278C142.866 31.3363 142.732 32.4387 142.399 33.2655C142.133 34.0923 141.668 34.641 141.005 34.9862C140.407 35.3313 139.811 35.5372 139.279 35.6068C138.748 35.6763 138.017 35.7433 137.153 35.7433H123.937V37.2603C123.937 39.4628 124.667 41.186 126.195 42.4943C127.722 43.8028 129.65 44.421 132.106 44.421C133.832 44.421 135.427 44.0088 136.954 43.182C138.482 42.3552 139.411 41.9432 139.743 41.9432C140.474 41.9432 141.072 42.2857 141.537 42.976C142.068 43.6637 142.267 44.354 142.267 45.0417C142.267 46.144 141.271 47.177 139.279 48.3463C137.287 49.4488 134.828 50 131.907 50C127.658 50 124.136 48.828 121.414 46.4198C118.624 44.0088 117.296 40.8407 117.296 36.9848ZM148.111 47.177V20.6623C148.111 19.9722 148.444 19.4905 149.04 19.0783C149.639 18.6637 150.436 18.4577 151.365 18.4577C152.162 18.4577 152.893 18.6637 153.491 19.0783C154.087 19.4905 154.353 20.0417 154.353 20.7295V23.622C155.083 22.1073 156.146 20.799 157.607 19.6967C159.07 18.5967 160.597 18.0455 162.323 18.0455H164.315C164.978 18.0455 165.577 18.3212 166.042 18.9393C166.573 19.56 166.772 20.2478 166.772 21.0747C166.772 21.9015 166.506 22.6587 166.042 23.2795C165.51 23.8977 164.978 24.1732 164.315 24.1732H162.323C160.331 24.1732 158.538 25.0697 157.01 26.8597C155.483 28.6498 154.753 30.9243 154.753 33.7472V47.1073C154.753 47.6587 154.42 48.2098 153.757 48.6915C153.091 49.1732 152.294 49.3793 151.365 49.3793C150.436 49.3793 149.706 49.1732 149.04 48.6915C148.377 48.2795 148.111 47.7282 148.111 47.177ZM172.683 37.4665C172.683 39.6687 173.413 41.6677 174.94 43.3882C176.468 45.1113 178.328 45.9355 180.452 45.9355C182.645 45.9355 184.503 45.1113 186.03 43.3882C187.557 41.6677 188.355 39.7383 188.355 37.4665V30.373C188.355 28.2378 187.557 26.3085 186.03 24.6548C184.435 22.9343 182.645 22.1073 180.52 22.1073C178.393 22.1073 176.535 22.9343 175.008 24.6548C173.48 26.378 172.75 28.2378 172.75 30.373V37.4665H172.683ZM168.632 37.4665V30.373C168.632 27.0657 169.827 24.1732 172.152 21.7622C174.477 19.354 177.265 18.1125 180.52 18.1125C183.705 18.1125 186.563 19.2845 188.887 21.6953C191.277 24.1063 192.473 26.9987 192.473 30.3033V37.397C192.473 40.6347 191.277 43.5272 188.887 46.0747C186.495 48.555 183.705 49.8635 180.52 49.8635C177.397 49.8635 174.608 48.622 172.218 46.0747C169.827 43.6637 168.632 40.7712 168.632 37.4665ZM197.385 47.7282V20.1113C197.385 19.6297 197.587 19.2845 197.918 18.9393C198.318 18.6637 198.782 18.5272 199.38 18.5272C199.908 18.5272 200.308 18.6637 200.707 19.0088C201.107 19.354 201.24 19.6967 201.24 20.1113V23.1403C201.968 21.6953 203.032 20.5233 204.493 19.56C205.955 18.5967 207.68 18.1125 209.605 18.1125C212.595 18.1125 215.252 19.2845 217.443 21.6953C219.635 24.1063 220.762 26.9987 220.762 30.3033V47.7282C220.762 48.2795 220.565 48.6915 220.167 48.9672C219.768 49.2428 219.235 49.4487 218.703 49.4487C218.173 49.4487 217.775 49.3122 217.31 48.9672C216.91 48.6915 216.712 48.2795 216.712 47.7282V30.373C216.712 28.2378 215.915 26.3085 214.387 24.6548C212.858 22.9343 211.002 22.1073 208.875 22.1073C206.883 22.1073 205.157 22.8648 203.695 24.3818C202.17 25.8963 201.437 27.8927 201.437 30.373V47.7282C201.437 48.1403 201.237 48.555 200.773 48.8977C200.377 49.2428 199.908 49.4487 199.315 49.4487C198.715 49.4487 198.25 49.2428 197.853 48.8977C197.587 48.622 197.385 48.2098 197.385 47.7282ZM229.595 32.0935H242.148C243.408 32.0935 244.207 31.957 244.672 31.6815C245.07 31.4057 245.268 30.785 245.268 29.8913C245.268 27.7562 244.537 25.8268 243.01 24.1732C241.55 22.5222 239.69 21.6953 237.432 21.6953C235.242 21.6953 233.38 22.4527 231.853 24.0367C230.325 25.6207 229.595 27.4803 229.595 29.6157V32.0935ZM225.545 37.4665V30.1643C225.545 26.8597 226.742 24.0367 229.065 21.6953C231.39 19.354 234.245 18.1125 237.498 18.1125C240.687 18.1125 243.408 19.2845 245.733 21.4893C248.057 23.7612 249.187 26.584 249.187 30.0278C249.187 31.2667 249.053 32.2327 248.79 32.9898C248.523 33.7472 248.057 34.2288 247.46 34.5738C246.862 34.8497 246.33 35.0555 245.798 35.1922C245.268 35.2617 244.603 35.3313 243.74 35.3313H229.595V37.742C229.595 40.2895 230.458 42.3552 232.253 43.9393C234.047 45.4538 236.303 46.2807 239.093 46.2807C240.485 46.2807 241.748 46.0747 242.81 45.593C243.678 45.2582 244.502 44.8177 245.268 44.2845C245.867 43.8698 246.267 43.5943 246.597 43.5943C247.06 43.5943 247.46 43.8028 247.792 44.2845C248.123 44.7662 248.323 45.1783 248.323 45.593C248.323 46.4867 247.393 47.4527 245.6 48.416C243.807 49.3793 241.55 49.8635 238.895 49.8635C234.907 49.8635 231.722 48.6915 229.198 46.4198C226.805 44.215 225.545 41.186 225.545 37.4665Z" fill="#65658E"/>
</g>
<defs>
<clipPath id="clip0_9_33">
<rect width="250" height="50" fill="white"/>
</clipPath>
</defs>
</svg>
