<svg xmlns="http://www.w3.org/2000/svg" xmlns:xlink="http://www.w3.org/1999/xlink" class="Featurettestyles__MotisBackgroundIcon-sc-mbu6zi-1 cwEgin" viewBox="0 0 144 144"><defs><path id="a" d="M61.714 41.143v7.714h20.572v-7.714c0-11.343 9.228-20.572 20.571-20.572 11.343 0 20.572 9.229 20.572 20.572s-9.229 20.571-20.572 20.571H41.143C18.42 61.714 0 80.134 0 102.857S18.42 144 41.143 144h7.714v-20.571h-7.714c-11.343 0-20.572-9.229-20.572-20.572S29.8 82.286 41.143 82.286h20.571V144h20.572V82.286h20.571c22.722 0 41.143-18.42 41.143-41.143S125.58 0 102.857 0C80.135 0 61.714 18.42 61.714 41.143z"/></defs><use xlink:href="#a" fill-rule="evenodd"/></svg>