<svg width="94" height="105" viewBox="0 0 94 105" fill="none" xmlns="http://www.w3.org/2000/svg">
<g clip-path="url(#clip0_2726_11526)">
<path d="M8.09961 81.8998L47.5996 102L85.5996 81.8998V3.2998H8.09961V81.8998Z" fill="white"/>
<path d="M86.4008 3.6001L7.30078 83.3001L48.3008 103.6L86.4008 84.1001V3.6001Z" fill="#F2F3F2"/>
<path d="M5.5 29.5002V83.6002L6.9 84.3002L46.4 104.4L47.6 105L48.8 104.4L86.9 84.3002L88.3 83.6002V0.700195H5.5V29.5002ZM8.1 82.1002V3.3002H85.7V82.1002L47.6 102.2L8.1 82.1002Z" fill="#DCDEDC"/>
<path d="M46.9004 4.6002C47.3004 4.6002 47.7004 4.6002 48.1004 4.7002L46.9004 7.0002C45.1004 6.9002 43.5004 8.3002 43.4004 10.1002C43.3004 11.9002 44.7004 13.5002 46.5004 13.6002H46.9004C47.7004 13.6002 48.5004 13.3002 49.1004 12.8002L50.4004 15.0002C49.4004 15.7002 48.2004 16.1002 46.9004 16.1002C43.7004 16.2002 41.0004 13.8002 40.9004 10.6002C40.8004 7.4002 43.2004 4.7002 46.4004 4.6002H46.9004ZM51.0004 9.5002L52.5004 12.0002L51.0004 14.4002L49.6004 12.0002H46.7004L48.2004 9.5002H51.0004ZM48.6004 8.6002C48.6004 8.2002 48.7004 7.8002 48.9004 7.5002C49.1004 7.2002 49.5004 6.9002 49.8004 6.7002L50.0004 6.6002C50.4004 6.4002 50.5004 6.3002 50.5004 6.1002C50.5004 5.9002 50.2004 5.7002 50.0004 5.7002C49.6004 5.7002 49.3004 5.9002 49.1004 6.3002L48.6004 5.8002C48.7004 5.6002 48.9004 5.4002 49.1004 5.2002C49.4004 5.0002 49.7004 5.0002 50.0004 5.0002C50.3004 5.0002 50.7004 5.1002 50.9004 5.3002C51.1004 5.5002 51.3004 5.8002 51.3004 6.1002C51.3004 6.6002 51.0004 7.0002 50.4004 7.2002L50.1004 7.4002C49.8004 7.6002 49.6004 7.7002 49.5004 8.0002H51.3004V8.7002L48.6004 8.6002ZM46.9004 21.1002L56.4004 15.7002V0.700195H37.3004V15.6002L46.9004 21.1002ZM90.2004 56.5002H3.60039L0.400391 63.5002L3.60039 70.5002H90.2004L93.3004 63.5002L90.2004 56.5002Z" fill="#FF492C"/>
<path d="M19.0909 51.9999C19.0309 51.9999 18.9809 51.9799 18.9409 51.9399C18.9009 51.8932 18.8809 51.8399 18.8809 51.7799V39.6199C18.8809 39.5599 18.9009 39.5066 18.9409 39.4599C18.9809 39.4199 19.0309 39.3999 19.0909 39.3999H21.2009C21.2609 39.3999 21.3109 39.4199 21.3509 39.4599C21.3975 39.5066 21.4209 39.5599 21.4209 39.6199V49.7299C21.4209 49.7899 21.4509 49.8199 21.5109 49.8199H27.3909C27.4509 49.8199 27.5042 49.8399 27.5509 49.8799C27.5909 49.9266 27.6109 49.9799 27.6109 50.0399V51.7799C27.6109 51.8399 27.5909 51.8932 27.5509 51.9399C27.5042 51.9799 27.4509 51.9999 27.3909 51.9999H19.0909ZM37.2009 46.4199C37.2742 46.8732 37.2975 47.3832 37.2709 47.9499C37.2642 48.0966 37.1875 48.1699 37.0409 48.1699H31.4809C31.4075 48.1699 31.3842 48.1999 31.4109 48.2599C31.4442 48.4999 31.5075 48.7399 31.6009 48.9799C31.9142 49.6466 32.5509 49.9799 33.5109 49.9799C34.2775 49.9732 34.8842 49.6632 35.3309 49.0499C35.3775 48.9766 35.4309 48.9399 35.4909 48.9399C35.5309 48.9399 35.5742 48.9632 35.6209 49.0099L36.9109 50.2899C36.9709 50.3499 37.0009 50.4032 37.0009 50.4499C37.0009 50.4766 36.9775 50.5266 36.9309 50.5999C36.5375 51.0866 36.0275 51.4666 35.4009 51.7399C34.7809 52.0066 34.0975 52.1399 33.3509 52.1399C32.3175 52.1399 31.4442 51.9066 30.7309 51.4399C30.0175 50.9732 29.5042 50.3199 29.1909 49.4799C28.9375 48.8799 28.8109 48.0932 28.8109 47.1199C28.8109 46.4599 28.9009 45.8799 29.0809 45.3799C29.3609 44.5266 29.8442 43.8466 30.5309 43.3399C31.2242 42.8399 32.0442 42.5899 32.9909 42.5899C34.1909 42.5899 35.1542 42.9366 35.8809 43.6299C36.6075 44.3232 37.0475 45.2532 37.2009 46.4199ZM33.0109 44.7799C32.2509 44.7799 31.7509 45.1332 31.5109 45.8399C31.4642 45.9999 31.4242 46.1932 31.3909 46.4199C31.3909 46.4799 31.4209 46.5099 31.4809 46.5099H34.5909C34.6642 46.5099 34.6875 46.4799 34.6609 46.4199C34.6009 46.0732 34.5709 45.9066 34.5709 45.9199C34.4642 45.5599 34.2775 45.2799 34.0109 45.0799C33.7375 44.8799 33.4042 44.7799 33.0109 44.7799ZM42.4409 42.5999C43.2209 42.5999 43.9175 42.7366 44.5309 43.0099C45.1442 43.2766 45.6209 43.6466 45.9609 44.1199C46.3009 44.5866 46.4709 45.1066 46.4709 45.6799V51.7799C46.4709 51.8399 46.4509 51.8932 46.4109 51.9399C46.3709 51.9799 46.3209 51.9999 46.2609 51.9999H44.1509C44.0909 51.9999 44.0409 51.9799 44.0009 51.9399C43.9542 51.8932 43.9309 51.8399 43.9309 51.7799V51.1899C43.9309 51.1566 43.9209 51.1332 43.9009 51.1199C43.8742 51.1066 43.8509 51.1166 43.8309 51.1499C43.3242 51.8099 42.5142 52.1399 41.4009 52.1399C40.4609 52.1399 39.7042 51.9132 39.1309 51.4599C38.5509 51.0066 38.2609 50.3332 38.2609 49.4399C38.2609 48.5199 38.5875 47.8032 39.2409 47.2899C39.8875 46.7832 40.8109 46.5299 42.0109 46.5299H43.8409C43.9009 46.5299 43.9309 46.4999 43.9309 46.4399V46.0399C43.9309 45.6466 43.8109 45.3366 43.5709 45.1099C43.3309 44.8899 42.9709 44.7799 42.4909 44.7799C42.1242 44.7799 41.8175 44.8466 41.5709 44.9799C41.3242 45.1132 41.1642 45.2999 41.0909 45.5399C41.0575 45.6732 40.9809 45.7332 40.8609 45.7199L38.6809 45.4299C38.5342 45.4032 38.4675 45.3499 38.4809 45.2699C38.5275 44.7632 38.7275 44.3066 39.0809 43.8999C39.4342 43.4932 39.9042 43.1766 40.4909 42.9499C41.0709 42.7166 41.7209 42.5999 42.4409 42.5999ZM42.0809 50.2499C42.5942 50.2499 43.0309 50.1132 43.3909 49.8399C43.7509 49.5666 43.9309 49.2132 43.9309 48.7799V48.1299C43.9309 48.0699 43.9009 48.0399 43.8409 48.0399H42.5509C42.0109 48.0399 41.5875 48.1432 41.2809 48.3499C40.9742 48.5499 40.8209 48.8366 40.8209 49.2099C40.8209 49.5366 40.9342 49.7899 41.1609 49.9699C41.3875 50.1566 41.6942 50.2499 42.0809 50.2499ZM54.0009 39.6199C54.0009 39.5599 54.0209 39.5066 54.0609 39.4599C54.1009 39.4199 54.1509 39.3999 54.2109 39.3999H56.3209C56.3809 39.3999 56.4309 39.4199 56.4709 39.4599C56.5109 39.5066 56.5309 39.5599 56.5309 39.6199V51.7799C56.5309 51.8399 56.5109 51.8932 56.4709 51.9399C56.4309 51.9799 56.3809 51.9999 56.3209 51.9999H54.2109C54.1509 51.9999 54.1009 51.9799 54.0609 51.9399C54.0209 51.8932 54.0009 51.8399 54.0009 51.7799V51.1899C54.0009 51.1566 53.9875 51.1366 53.9609 51.1299C53.9342 51.1232 53.9109 51.1299 53.8909 51.1499C53.3842 51.8099 52.6942 52.1399 51.8209 52.1399C50.9809 52.1399 50.2575 51.9066 49.6509 51.4399C49.0442 50.9732 48.6075 50.3332 48.3409 49.5199C48.1409 48.8932 48.0409 48.1666 48.0409 47.3399C48.0409 46.4866 48.1475 45.7432 48.3609 45.1099C48.6409 44.3366 49.0775 43.7266 49.6709 43.2799C50.2642 42.8266 50.9975 42.5999 51.8709 42.5999C52.7375 42.5999 53.4109 42.8999 53.8909 43.4999C53.9109 43.5399 53.9342 43.5532 53.9609 43.5399C53.9875 43.5266 54.0009 43.5032 54.0009 43.4699V39.6199ZM53.6209 49.1899C53.8609 48.7499 53.9809 48.1432 53.9809 47.3699C53.9809 46.5699 53.8475 45.9399 53.5809 45.4799C53.3075 45.0132 52.9075 44.7799 52.3809 44.7799C51.8142 44.7799 51.3875 45.0132 51.1009 45.4799C50.8009 45.9532 50.6509 46.5899 50.6509 47.3899C50.6509 48.1099 50.7775 48.7099 51.0309 49.1899C51.3309 49.7099 51.7742 49.9699 52.3609 49.9699C52.9009 49.9699 53.3209 49.7099 53.6209 49.1899ZM66.6309 46.4199C66.7042 46.8732 66.7275 47.3832 66.7009 47.9499C66.6942 48.0966 66.6175 48.1699 66.4709 48.1699H60.9109C60.8375 48.1699 60.8142 48.1999 60.8409 48.2599C60.8742 48.4999 60.9375 48.7399 61.0309 48.9799C61.3442 49.6466 61.9809 49.9799 62.9409 49.9799C63.7075 49.9732 64.3142 49.6632 64.7609 49.0499C64.8075 48.9766 64.8609 48.9399 64.9209 48.9399C64.9609 48.9399 65.0042 48.9632 65.0509 49.0099L66.3409 50.2899C66.4009 50.3499 66.4309 50.4032 66.4309 50.4499C66.4309 50.4766 66.4075 50.5266 66.3609 50.5999C65.9675 51.0866 65.4575 51.4666 64.8309 51.7399C64.2109 52.0066 63.5275 52.1399 62.7809 52.1399C61.7475 52.1399 60.8742 51.9066 60.1609 51.4399C59.4475 50.9732 58.9342 50.3199 58.6209 49.4799C58.3675 48.8799 58.2409 48.0932 58.2409 47.1199C58.2409 46.4599 58.3309 45.8799 58.5109 45.3799C58.7909 44.5266 59.2742 43.8466 59.9609 43.3399C60.6542 42.8399 61.4742 42.5899 62.4209 42.5899C63.6209 42.5899 64.5842 42.9366 65.3109 43.6299C66.0375 44.3232 66.4775 45.2532 66.6309 46.4199ZM62.4409 44.7799C61.6809 44.7799 61.1809 45.1332 60.9409 45.8399C60.8942 45.9999 60.8542 46.1932 60.8209 46.4199C60.8209 46.4799 60.8509 46.5099 60.9109 46.5099H64.0209C64.0942 46.5099 64.1175 46.4799 64.0909 46.4199C64.0309 46.0732 64.0009 45.9066 64.0009 45.9199C63.8942 45.5599 63.7075 45.2799 63.4409 45.0799C63.1675 44.8799 62.8342 44.7799 62.4409 44.7799ZM72.8809 42.6199C73.3142 42.6199 73.6542 42.7032 73.9009 42.8699C74.0009 42.9232 74.0375 43.0132 74.0109 43.1399L73.6309 45.1999C73.6242 45.3399 73.5409 45.3799 73.3809 45.3199C73.2009 45.2599 72.9909 45.2299 72.7509 45.2299C72.6575 45.2299 72.5275 45.2432 72.3609 45.2699C71.9275 45.3032 71.5609 45.4599 71.2609 45.7399C70.9609 46.0266 70.8109 46.4032 70.8109 46.8699V51.7799C70.8109 51.8399 70.7909 51.8932 70.7509 51.9399C70.7042 51.9799 70.6509 51.9999 70.5909 51.9999H68.4909C68.4309 51.9999 68.3775 51.9799 68.3309 51.9399C68.2909 51.8932 68.2709 51.8399 68.2709 51.7799V42.9599C68.2709 42.8999 68.2909 42.8499 68.3309 42.8099C68.3775 42.7699 68.4309 42.7499 68.4909 42.7499H70.5909C70.6509 42.7499 70.7042 42.7699 70.7509 42.8099C70.7909 42.8499 70.8109 42.8999 70.8109 42.9599V43.6499C70.8109 43.6832 70.8209 43.7066 70.8409 43.7199C70.8675 43.7332 70.8875 43.7266 70.9009 43.6999C71.3942 42.9799 72.0542 42.6199 72.8809 42.6199Z" fill="#252530"/>
<path d="M33.1403 67.4798C32.6203 67.4798 32.167 67.3965 31.7803 67.2298C31.3936 67.0632 31.0936 66.8298 30.8803 66.5298C30.6736 66.2298 30.5703 65.8765 30.5703 65.4698V65.2198C30.5703 65.1865 30.5836 65.1565 30.6103 65.1298C30.6303 65.1098 30.657 65.0998 30.6903 65.0998H31.5803C31.6136 65.0998 31.6436 65.1098 31.6703 65.1298C31.6903 65.1565 31.7003 65.1865 31.7003 65.2198V65.4098C31.7003 65.7165 31.837 65.9698 32.1103 66.1698C32.3836 66.3765 32.757 66.4798 33.2303 66.4798C33.637 66.4798 33.9436 66.3932 34.1503 66.2198C34.357 66.0465 34.4603 65.8232 34.4603 65.5498C34.4603 65.3632 34.4036 65.2032 34.2903 65.0698C34.177 64.9432 34.017 64.8265 33.8103 64.7198C33.597 64.6132 33.2803 64.4798 32.8603 64.3198C32.387 64.1465 32.0036 63.9832 31.7103 63.8298C31.417 63.6765 31.1736 63.4665 30.9803 63.1998C30.7803 62.9398 30.6803 62.6132 30.6803 62.2198C30.6803 61.6332 30.8936 61.1698 31.3203 60.8298C31.747 60.4898 32.317 60.3198 33.0303 60.3198C33.5303 60.3198 33.9736 60.4065 34.3603 60.5798C34.7403 60.7532 35.037 60.9965 35.2503 61.3098C35.4636 61.6165 35.5703 61.9732 35.5703 62.3798V62.5498C35.5703 62.5832 35.557 62.6132 35.5303 62.6398C35.5103 62.6598 35.4836 62.6698 35.4503 62.6698H34.5503C34.517 62.6698 34.4903 62.6598 34.4703 62.6398C34.4436 62.6132 34.4303 62.5832 34.4303 62.5498V62.4398C34.4303 62.1265 34.3036 61.8632 34.0503 61.6498C33.7903 61.4298 33.4336 61.3198 32.9803 61.3198C32.6136 61.3198 32.3303 61.3965 32.1303 61.5498C31.9236 61.7032 31.8203 61.9198 31.8203 62.1998C31.8203 62.3998 31.8736 62.5632 31.9803 62.6898C32.087 62.8165 32.247 62.9298 32.4603 63.0298C32.6736 63.1365 33.0036 63.2698 33.4503 63.4298C33.9236 63.6098 34.3036 63.7732 34.5903 63.9198C34.8703 64.0665 35.1136 64.2698 35.3203 64.5298C35.5203 64.7965 35.6203 65.1265 35.6203 65.5198C35.6203 66.1198 35.397 66.5965 34.9503 66.9498C34.5103 67.3032 33.907 67.4798 33.1403 67.4798ZM39.6003 60.3898C40.0203 60.3898 40.3903 60.4765 40.7103 60.6498C41.0303 60.8232 41.277 61.0665 41.4503 61.3798C41.6303 61.6998 41.7203 62.0665 41.7203 62.4798C41.7203 62.8865 41.6303 63.2465 41.4503 63.5598C41.2703 63.8732 41.017 64.1132 40.6903 64.2798C40.357 64.4532 39.9736 64.5398 39.5403 64.5398H37.9403C37.907 64.5398 37.8903 64.5565 37.8903 64.5898V67.2798C37.8903 67.3132 37.8803 67.3398 37.8603 67.3598C37.8336 67.3865 37.8036 67.3998 37.7703 67.3998H36.8503C36.817 67.3998 36.7903 67.3865 36.7703 67.3598C36.7436 67.3398 36.7303 67.3132 36.7303 67.2798V60.5098C36.7303 60.4765 36.7436 60.4465 36.7703 60.4198C36.7903 60.3998 36.817 60.3898 36.8503 60.3898H39.6003ZM39.4303 63.5998C39.7703 63.5998 40.0436 63.4998 40.2503 63.2998C40.457 63.0998 40.5603 62.8365 40.5603 62.5098C40.5603 62.1765 40.457 61.9065 40.2503 61.6998C40.0436 61.4932 39.7703 61.3898 39.4303 61.3898H37.9403C37.907 61.3898 37.8903 61.4065 37.8903 61.4398V63.5498C37.8903 63.5832 37.907 63.5998 37.9403 63.5998H39.4303ZM46.6703 67.3998C46.6036 67.3998 46.557 67.3698 46.5303 67.3098L45.2103 64.4298C45.197 64.4032 45.177 64.3898 45.1503 64.3898H43.9503C43.917 64.3898 43.9003 64.4065 43.9003 64.4398V67.2798C43.9003 67.3132 43.887 67.3398 43.8603 67.3598C43.8403 67.3865 43.8136 67.3998 43.7803 67.3998H42.8603C42.827 67.3998 42.8003 67.3865 42.7803 67.3598C42.7536 67.3398 42.7403 67.3132 42.7403 67.2798V60.5198C42.7403 60.4865 42.7536 60.4598 42.7803 60.4398C42.8003 60.4132 42.827 60.3998 42.8603 60.3998H45.6103C46.017 60.3998 46.377 60.4832 46.6903 60.6498C47.0036 60.8232 47.247 61.0632 47.4203 61.3698C47.5936 61.6832 47.6803 62.0398 47.6803 62.4398C47.6803 62.8998 47.5636 63.2898 47.3303 63.6098C47.0903 63.9365 46.7603 64.1632 46.3403 64.2898C46.327 64.2898 46.317 64.2965 46.3103 64.3098C46.3036 64.3232 46.3036 64.3365 46.3103 64.3498L47.7203 67.2598C47.7336 67.2865 47.7403 67.3065 47.7403 67.3198C47.7403 67.3732 47.7036 67.3998 47.6303 67.3998H46.6703ZM43.9503 61.3998C43.917 61.3998 43.9003 61.4165 43.9003 61.4498V63.4398C43.9003 63.4732 43.917 63.4898 43.9503 63.4898H45.4503C45.7703 63.4898 46.027 63.3932 46.2203 63.1998C46.4203 63.0132 46.5203 62.7632 46.5203 62.4498C46.5203 62.1365 46.4203 61.8832 46.2203 61.6898C46.027 61.4965 45.7703 61.3998 45.4503 61.3998H43.9503ZM48.9903 67.3998C48.957 67.3998 48.927 67.3865 48.9003 67.3598C48.8803 67.3398 48.8703 67.3132 48.8703 67.2798V60.5198C48.8703 60.4865 48.8803 60.4598 48.9003 60.4398C48.927 60.4132 48.957 60.3998 48.9903 60.3998H49.9103C49.9436 60.3998 49.9703 60.4132 49.9903 60.4398C50.017 60.4598 50.0303 60.4865 50.0303 60.5198V67.2798C50.0303 67.3132 50.017 67.3398 49.9903 67.3598C49.9703 67.3865 49.9436 67.3998 49.9103 67.3998H48.9903ZM55.5603 60.5198C55.5603 60.4865 55.5736 60.4598 55.6003 60.4398C55.6203 60.4132 55.647 60.3998 55.6803 60.3998H56.6003C56.6336 60.3998 56.6636 60.4132 56.6903 60.4398C56.7103 60.4598 56.7203 60.4865 56.7203 60.5198V67.2798C56.7203 67.3132 56.7103 67.3398 56.6903 67.3598C56.6636 67.3865 56.6336 67.3998 56.6003 67.3998H55.7103C55.6436 67.3998 55.597 67.3732 55.5703 67.3198L52.6903 62.5998C52.677 62.5798 52.6636 62.5698 52.6503 62.5698C52.637 62.5765 52.6303 62.5932 52.6303 62.6198L52.6503 67.2798C52.6503 67.3132 52.637 67.3398 52.6103 67.3598C52.5903 67.3865 52.5636 67.3998 52.5303 67.3998H51.6103C51.577 67.3998 51.5503 67.3865 51.5303 67.3598C51.5036 67.3398 51.4903 67.3132 51.4903 67.2798V60.5198C51.4903 60.4865 51.5036 60.4598 51.5303 60.4398C51.5503 60.4132 51.577 60.3998 51.6103 60.3998H52.5003C52.567 60.3998 52.6136 60.4265 52.6403 60.4798L55.5103 65.1998C55.5236 65.2198 55.537 65.2265 55.5503 65.2198C55.5636 65.2198 55.5703 65.2065 55.5703 65.1798L55.5603 60.5198ZM60.5203 67.4798C60.0203 67.4798 59.5803 67.3832 59.2003 67.1898C58.8203 66.9898 58.527 66.7098 58.3203 66.3498C58.1136 65.9898 58.0103 65.5765 58.0103 65.1098V62.6898C58.0103 62.2165 58.1136 61.7998 58.3203 61.4398C58.527 61.0865 58.8203 60.8098 59.2003 60.6098C59.5803 60.4165 60.0203 60.3198 60.5203 60.3198C61.0136 60.3198 61.4503 60.4165 61.8303 60.6098C62.2036 60.8032 62.4936 61.0665 62.7003 61.3998C62.907 61.7332 63.0103 62.1098 63.0103 62.5298V62.6098C63.0103 62.6432 63.0003 62.6698 62.9803 62.6898C62.9536 62.7165 62.9236 62.7298 62.8903 62.7298H61.9803C61.947 62.7298 61.9203 62.7165 61.9003 62.6898C61.8736 62.6698 61.8603 62.6432 61.8603 62.6098V62.5598C61.8603 62.1998 61.737 61.9032 61.4903 61.6698C61.2503 61.4365 60.927 61.3198 60.5203 61.3198C60.1136 61.3198 59.787 61.4432 59.5403 61.6898C59.2936 61.9298 59.1703 62.2498 59.1703 62.6498V65.1498C59.1703 65.5498 59.3003 65.8732 59.5603 66.1198C59.8203 66.3598 60.157 66.4798 60.5703 66.4798C60.9703 66.4798 61.287 66.3732 61.5203 66.1598C61.747 65.9532 61.8603 65.6665 61.8603 65.2998V64.6798C61.8603 64.6465 61.8436 64.6298 61.8103 64.6298H60.5803C60.547 64.6298 60.517 64.6165 60.4903 64.5898C60.4703 64.5698 60.4603 64.5432 60.4603 64.5098V63.7698C60.4603 63.7365 60.4703 63.7098 60.4903 63.6898C60.517 63.6632 60.547 63.6498 60.5803 63.6498H62.8903C62.9236 63.6498 62.9536 63.6632 62.9803 63.6898C63.0003 63.7098 63.0103 63.7365 63.0103 63.7698V65.0498C63.0103 65.8165 62.787 66.4132 62.3403 66.8398C61.887 67.2665 61.2803 67.4798 60.5203 67.4798Z" fill="white"/>
<path d="M34.0302 85.4598C34.0102 85.4798 34.0036 85.4998 34.0102 85.5198C34.0236 85.5398 34.0436 85.5498 34.0702 85.5498H38.0002C38.0469 85.5498 38.0869 85.5665 38.1202 85.5998C38.1602 85.6331 38.1802 85.6731 38.1802 85.7198V87.1298C38.1802 87.1765 38.1602 87.2165 38.1202 87.2498C38.0869 87.2831 38.0469 87.2998 38.0002 87.2998H31.4802C31.4269 87.2998 31.3836 87.2831 31.3502 87.2498C31.3169 87.2165 31.3002 87.1765 31.3002 87.1298V85.7898C31.3002 85.7031 31.3302 85.6298 31.3902 85.5698C31.8636 85.1098 32.3469 84.6065 32.8402 84.0598C33.3336 83.5131 33.6436 83.1731 33.7702 83.0398C34.0369 82.7198 34.3102 82.4131 34.5902 82.1198C35.4702 81.1465 35.9102 80.4231 35.9102 79.9498C35.9102 79.6098 35.7902 79.3298 35.5502 79.1098C35.3102 78.8965 34.9969 78.7898 34.6102 78.7898C34.2236 78.7898 33.9102 78.8965 33.6702 79.1098C33.4236 79.3298 33.3002 79.6198 33.3002 79.9798V80.3398C33.3002 80.3864 33.2836 80.4265 33.2502 80.4598C33.2169 80.4931 33.1769 80.5098 33.1302 80.5098H31.4202C31.3736 80.5098 31.3336 80.4931 31.3002 80.4598C31.2602 80.4265 31.2402 80.3864 31.2402 80.3398V79.6598C31.2736 79.1398 31.4402 78.6764 31.7402 78.2698C32.0402 77.8698 32.4369 77.5631 32.9302 77.3498C33.4302 77.1365 33.9902 77.0298 34.6102 77.0298C35.2969 77.0298 35.8936 77.1598 36.4002 77.4198C36.9069 77.6731 37.2969 78.0164 37.5702 78.4498C37.8502 78.8898 37.9902 79.3731 37.9902 79.8998C37.9902 80.3065 37.8869 80.7231 37.6802 81.1498C37.4802 81.5765 37.1769 82.0365 36.7702 82.5298C36.4702 82.9031 36.1469 83.2765 35.8002 83.6498C35.4536 84.0165 34.9369 84.5465 34.2502 85.2398L34.0302 85.4598ZM42.8902 87.4598C41.8236 87.4598 40.9836 87.1631 40.3702 86.5698C39.7502 85.9765 39.4402 85.1665 39.4402 84.1398V80.3098C39.4402 79.3031 39.7502 78.5065 40.3702 77.9198C40.9836 77.3265 41.8236 77.0298 42.8902 77.0298C43.9502 77.0298 44.7936 77.3265 45.4202 77.9198C46.0402 78.5065 46.3502 79.3031 46.3502 80.3098V84.1398C46.3502 85.1665 46.0402 85.9765 45.4202 86.5698C44.7936 87.1631 43.9502 87.4598 42.8902 87.4598ZM42.8902 85.7098C43.3236 85.7098 43.6669 85.5765 43.9202 85.3098C44.1802 85.0431 44.3102 84.6865 44.3102 84.2398V80.2498C44.3102 79.8098 44.1802 79.4565 43.9202 79.1898C43.6669 78.9231 43.3236 78.7898 42.8902 78.7898C42.4636 78.7898 42.1236 78.9231 41.8702 79.1898C41.6102 79.4565 41.4802 79.8098 41.4802 80.2498V84.2398C41.4802 84.6865 41.6102 85.0431 41.8702 85.3098C42.1236 85.5765 42.4636 85.7098 42.8902 85.7098ZM50.4102 85.4598C50.3902 85.4798 50.3869 85.4998 50.4002 85.5198C50.4069 85.5398 50.4269 85.5498 50.4602 85.5498H54.3902C54.4369 85.5498 54.4769 85.5665 54.5102 85.5998C54.5436 85.6331 54.5602 85.6731 54.5602 85.7198V87.1298C54.5602 87.1765 54.5436 87.2165 54.5102 87.2498C54.4769 87.2831 54.4369 87.2998 54.3902 87.2998H47.8602C47.8136 87.2998 47.7736 87.2831 47.7402 87.2498C47.7069 87.2165 47.6902 87.1765 47.6902 87.1298V85.7898C47.6902 85.7031 47.7169 85.6298 47.7702 85.5698C48.2502 85.1098 48.7336 84.6065 49.2202 84.0598C49.7136 83.5131 50.0236 83.1731 50.1502 83.0398C50.4236 82.7198 50.7002 82.4131 50.9802 82.1198C51.8602 81.1465 52.3002 80.4231 52.3002 79.9498C52.3002 79.6098 52.1802 79.3298 51.9402 79.1098C51.6936 78.8965 51.3769 78.7898 50.9902 78.7898C50.6036 78.7898 50.2902 78.8965 50.0502 79.1098C49.8102 79.3298 49.6902 79.6198 49.6902 79.9798V80.3398C49.6902 80.3864 49.6736 80.4265 49.6402 80.4598C49.6069 80.4931 49.5636 80.5098 49.5102 80.5098H47.8002C47.7536 80.5098 47.7136 80.4931 47.6802 80.4598C47.6469 80.4265 47.6302 80.3864 47.6302 80.3398V79.6598C47.6569 79.1398 47.8202 78.6764 48.1202 78.2698C48.4202 77.8698 48.8202 77.5631 49.3202 77.3498C49.8202 77.1365 50.3769 77.0298 50.9902 77.0298C51.6769 77.0298 52.2736 77.1598 52.7802 77.4198C53.2936 77.6731 53.6869 78.0164 53.9602 78.4498C54.2336 78.8898 54.3702 79.3731 54.3702 79.8998C54.3702 80.3065 54.2702 80.7231 54.0702 81.1498C53.8636 81.5765 53.5569 82.0365 53.1502 82.5298C52.8502 82.9031 52.5269 83.2765 52.1802 83.6498C51.8336 84.0165 51.3169 84.5465 50.6302 85.2398L50.4102 85.4598ZM61.8702 82.4598C62.0636 82.8998 62.1602 83.4098 62.1602 83.9898C62.1602 84.5165 62.0736 84.9998 61.9002 85.4398C61.6669 86.0598 61.2769 86.5431 60.7302 86.8898C60.1836 87.2431 59.5369 87.4198 58.7902 87.4198C58.0569 87.4198 57.4136 87.2365 56.8602 86.8698C56.3069 86.4965 55.9069 85.9965 55.6602 85.3698C55.5269 84.9965 55.4502 84.5898 55.4302 84.1498C55.4302 84.0365 55.4869 83.9798 55.6002 83.9798H57.3202C57.4336 83.9798 57.4902 84.0365 57.4902 84.1498C57.5302 84.4698 57.5836 84.7065 57.6502 84.8598C57.7369 85.1131 57.8802 85.3098 58.0802 85.4498C58.2736 85.5898 58.5069 85.6598 58.7802 85.6598C59.3202 85.6598 59.6936 85.4231 59.9002 84.9498C60.0336 84.6631 60.1002 84.3265 60.1002 83.9398C60.1002 83.4798 60.0269 83.1065 59.8802 82.8198C59.6602 82.3665 59.2902 82.1398 58.7702 82.1398C58.6636 82.1398 58.5502 82.1698 58.4302 82.2298C58.3169 82.2965 58.1769 82.3865 58.0102 82.4998C57.9702 82.5265 57.9336 82.5398 57.9002 82.5398C57.8402 82.5398 57.7969 82.5131 57.7702 82.4598L56.9102 81.2498C56.8902 81.2231 56.8802 81.1898 56.8802 81.1498C56.8802 81.0898 56.9002 81.0431 56.9402 81.0098L59.2402 78.9898C59.2602 78.9698 59.2702 78.9498 59.2702 78.9298C59.2636 78.9098 59.2469 78.8998 59.2202 78.8998H55.8102C55.7636 78.8998 55.7202 78.8831 55.6802 78.8498C55.6469 78.8165 55.6302 78.7765 55.6302 78.7298V77.3198C55.6302 77.2731 55.6469 77.2331 55.6802 77.1998C55.7202 77.1664 55.7636 77.1498 55.8102 77.1498H61.8502C61.9036 77.1498 61.9469 77.1664 61.9802 77.1998C62.0136 77.2331 62.0302 77.2731 62.0302 77.3198V78.9198C62.0302 78.9931 61.9969 79.0665 61.9302 79.1398L60.0302 80.8798C60.0102 80.8998 60.0036 80.9165 60.0102 80.9298C60.0102 80.9498 60.0302 80.9598 60.0702 80.9598C60.9102 81.1265 61.5102 81.6265 61.8702 82.4598Z" fill="#252530"/>
</g>
<defs>
<clipPath id="clip0_2726_11526">
<rect width="94" height="105" fill="white"/>
</clipPath>
</defs>
</svg>
