<svg width="212" height="50" viewBox="0 0 212 50" fill="none" xmlns="http://www.w3.org/2000/svg">
<g clip-path="url(#clip0_301_4)">
<path d="M0 38.7855H12.6666V37.4393H11.7155C9.86408 37.4393 9.41824 36.9341 9.41824 35.0871V18.3864C10.7091 16.1995 12.4458 14.7983 14.6327 14.7983C17.38 14.7983 19.0615 16.8153 19.0615 20.6284V35.0913C19.0615 36.9425 18.6114 37.4435 16.8195 37.4435H15.8089V38.7898H28.1952V37.4435H27.2994C25.4479 37.4435 25.0021 36.9383 25.0021 35.0913V20.0085C25.0021 19.5031 25.0021 18.9978 24.9469 18.4968C26.1783 16.2547 28.0297 14.7983 30.2164 14.7983C32.964 14.7983 34.6454 16.8153 34.6454 20.6284V35.0913C34.6454 36.9425 34.1953 37.4435 32.4034 37.4435H31.3926V38.7898H43.7791V37.4435H42.9384C41.0318 37.4435 40.5859 36.9383 40.5859 35.0913V20.0085C40.5859 14.3482 37.3927 11.2102 32.7389 11.2102C29.2653 11.2102 26.2377 13.1167 24.6114 16.9256C23.6602 13.2272 20.8577 11.2102 17.1549 11.2102C13.8471 11.2102 10.9893 13.0021 9.41824 16.5902V11.8811H0V13.2272H1.12102C3.0276 13.2272 3.47344 13.7324 3.47344 15.5796V35.0871C3.47344 36.9383 3.02334 37.4393 1.12102 37.4393H0V38.7855ZM51.2313 7.39701C53.2483 7.39701 54.9298 5.71549 54.9298 3.69852C54.9298 1.68152 53.2483 0 51.2313 0C49.2144 0 47.5329 1.68152 47.5329 3.69852C47.5329 5.71549 49.2144 7.39701 51.2313 7.39701ZM44.9554 38.7855H57.3969V37.4393H56.5562C54.7047 37.4393 54.2588 36.9341 54.2588 35.0871V11.8811H44.8407V13.2272H45.9616C47.8681 13.2272 48.3141 13.7324 48.3141 15.5796V35.0871C48.3141 36.9383 47.8639 37.4393 45.9616 37.4393H44.9511V38.7855H44.9554ZM66.4798 22.9808H70.0678C69.1717 22.4203 68.8365 21.6348 68.3863 20.1783L67.0401 15.1889C66.4244 12.9469 65.9192 11.8811 63.4521 11.8811H58.2972V13.2272H59.0275C60.539 13.2272 60.709 13.7877 61.1592 15.4692L62.3354 19.8429C62.9511 21.9745 63.9064 22.9808 66.484 22.9808H66.4798ZM74.777 22.9808H78.365C80.9425 22.9808 81.8383 21.9702 82.4585 19.8429L83.6347 15.4692C84.0846 13.7877 84.3055 13.2272 85.7664 13.2272H86.4967V11.8811H81.3969C78.8744 11.8811 78.3692 12.8917 77.8086 15.1889L76.4627 20.1783C76.0125 21.69 75.6728 22.4203 74.777 22.9808ZM70.0678 27.6899H74.777V22.9808H70.0678V27.6899ZM58.2972 38.7898H63.4521C65.9192 38.7898 66.4244 37.7239 67.0401 35.4819L68.3863 30.4926C68.8365 29.0359 69.1717 28.2505 70.0678 27.6899H66.4798C63.9022 27.6899 62.9468 28.7007 62.3312 30.8281L61.1549 35.2017C60.7048 36.8832 60.539 37.4435 59.0233 37.4435H58.293V38.7898H58.2972ZM81.3884 38.7898H86.4882V37.4435H85.7579C84.3012 37.4435 84.0761 36.8832 83.6262 35.2017L82.45 30.8281C81.8341 28.6964 80.9383 27.6899 78.3565 27.6899H74.777C75.6728 28.2505 75.9998 28.9808 76.4499 30.4926L77.7959 35.4819C78.3565 37.779 78.8617 38.7898 81.3842 38.7898H81.3884ZM87.2185 50H100.221V48.6538H98.8744C97.0825 48.6538 96.6324 48.1485 96.6324 46.3013V35.5966C98.2587 38.0083 101.006 39.465 104.255 39.465C110.365 39.465 115.24 34.0848 115.24 24.7813C115.24 16.3736 110.645 11.2187 104.7 11.2187C101.227 11.2187 98.3098 13.2356 96.6281 16.8237V11.8896H87.21V13.2356H88.3309C90.1824 13.2356 90.6834 13.7409 90.6834 15.5881V46.2971C90.6834 48.1485 90.1782 48.6495 88.3309 48.6495H87.21V49.9958L87.2185 50ZM102.577 14.6879C106.22 14.6879 109.193 18.1061 109.193 24.8874C109.193 32.2845 106.446 36.3226 102.692 36.3226C100.28 36.3226 98.1526 35.0317 96.6366 32.7897V18.8874C98.0932 16.1401 100.17 14.6836 102.577 14.6836V14.6879ZM124.102 39.3503C127.745 39.3503 130.658 37.6135 132.845 33.69V34.3057C132.845 37.6686 134.976 39.1253 138.505 39.1253C139.571 39.1253 140.917 39.0148 141.813 38.7344V37.3334C141.363 37.4435 141.027 37.5031 140.692 37.5031C139.291 37.5031 138.84 36.6624 138.84 35.3161V20.9638C138.84 14.3482 135.142 11.2102 128.921 11.2102C124.772 11.2102 120.739 13.1167 118.161 15.1337L119.057 16.7048C121.749 14.8535 124.382 13.7919 127.24 13.7919C130.938 13.7919 132.845 15.8089 132.845 20.518V21.7494L125.949 24.4416C119.673 27.0189 117.371 29.431 117.371 33.0744C117.371 36.7174 119.949 39.3503 124.097 39.3503H124.102ZM123.261 31.6135C123.261 28.8111 124.887 26.7939 128.195 25.3375L132.849 23.3205V32.0636C131.112 34.4754 129.095 35.8767 126.908 35.8767C124.722 35.8767 123.265 34.365 123.265 31.6177L123.261 31.6135ZM142.934 38.7898H155.715V37.4435H154.649C152.798 37.4435 152.352 36.9383 152.352 35.0913V18.4416C153.643 16.1995 155.545 14.7983 157.787 14.7983C160.7 14.7983 162.552 16.8153 162.552 20.6284V35.0913C162.552 36.9425 162.102 37.4435 160.309 37.4435H159.244V38.7898H171.966V37.4435H170.844C168.938 37.4435 168.492 36.9383 168.492 35.0913V20.0085C168.492 14.3482 165.129 11.2102 160.365 11.2102C156.891 11.2102 153.974 13.0021 152.348 16.5902V11.8811H142.93V13.2272H144.051C145.957 13.2272 146.403 13.7324 146.403 15.5796V35.0871C146.403 36.9383 145.953 37.4393 144.051 37.4393H142.93V38.7855L142.934 38.7898ZM186.539 39.4608C190.237 39.4608 193.715 37.779 196.237 35.7621L195.397 34.5307C193.155 36.1571 190.632 36.8832 188.28 36.8832C182.564 36.8832 179.201 32.8493 179.201 25.0021V23.9914H196.913C196.802 16.4246 192.148 11.2696 185.367 11.2696C178.586 11.2696 173.146 17.38 173.146 25.4522C173.146 34.3099 178.191 39.465 186.543 39.465L186.539 39.4608ZM185.418 12.6666C188.781 12.6666 190.853 16.3099 191.193 22.4755H179.312C179.817 16.2547 182.169 12.6666 185.422 12.6666H185.418ZM198.14 38.7855H211.142V37.4393H209.851C207.999 37.4393 207.554 36.9341 207.554 35.0871V0.670912H198.135V2.01698H199.256C201.108 2.01698 201.609 2.52229 201.609 4.36941V35.0871C201.609 36.9383 201.104 37.4393 199.256 37.4393H198.135V38.7855H198.14Z" fill="#65658E"/>
</g>
<defs>
<clipPath id="clip0_301_4">
<rect width="212" height="50" fill="white"/>
</clipPath>
</defs>
</svg>
