<svg width="264" height="50" viewBox="0 0 264 50" fill="none" xmlns="http://www.w3.org/2000/svg">
<path fill-rule="evenodd" clip-rule="evenodd" d="M260.563 23.2053C262.168 25.0058 263.002 27.3646 262.884 29.7737V44.4316H257.174V31.4789C257.215 30.7709 257.113 30.0619 256.873 29.3944C256.633 28.7269 256.261 28.1148 255.779 27.5947C255.278 27.1084 254.682 26.7311 254.028 26.4865C253.374 26.2419 252.676 26.1354 251.979 26.1737C251.133 26.1473 250.292 26.3065 249.515 26.6403C248.737 26.974 248.042 27.474 247.479 28.1053C246.341 29.4473 245.749 31.1681 245.821 32.9263V44.4684H240.137V11.9105H245.821V25.4684C247.417 22.3947 250.225 20.8298 254.242 20.7737C255.406 20.7143 256.57 20.8999 257.658 21.3188C258.746 21.7377 259.734 22.3804 260.558 23.2053H260.563ZM227.5 25.8368C226.645 25.8107 225.794 25.9682 225.005 26.2987C224.216 26.6292 223.507 27.1249 222.926 27.7526C221.717 29.1302 221.087 30.9216 221.168 32.7526C221.075 34.6125 221.705 36.4365 222.926 37.8421C223.509 38.4784 224.223 38.9803 225.019 39.3129C225.816 39.6456 226.675 39.801 227.537 39.7684C230.326 39.7684 232.426 38.8895 233.821 37.0105L237.337 39.9421C236.291 41.4637 234.857 42.6776 233.184 43.4579C231.306 44.3089 229.262 44.7279 227.2 44.6842C225.057 44.7246 222.939 44.2116 221.053 43.1947C219.287 42.2219 217.839 40.7598 216.884 38.9842C215.895 37.0532 215.379 34.9145 215.379 32.7447C215.379 30.575 215.895 28.4363 216.884 26.5053C217.855 24.7272 219.317 23.2657 221.095 22.2947C222.981 21.2763 225.098 20.7615 227.242 20.8C229.201 20.7687 231.143 21.1526 232.942 21.9263C234.553 22.61 235.959 23.6977 237.026 25.0842L233.558 28.421C232.784 27.5679 231.833 26.8945 230.771 26.448C229.708 26.0016 228.562 25.793 227.411 25.8368H227.5ZM211.789 20.9895V44.4684H206.105V40.7316C205.296 41.9879 204.173 43.0111 202.847 43.7C201.433 44.4171 199.865 44.7784 198.279 44.7526C196.234 44.7898 194.217 44.2675 192.447 43.2421C190.764 42.2216 189.406 40.7429 188.532 38.9789C187.57 37.0149 187.092 34.8495 187.137 32.6632C187.095 30.5108 187.573 28.3803 188.532 26.4526C189.407 24.7031 190.766 23.2417 192.447 22.2421C194.205 21.2265 196.207 20.7114 198.237 20.7526C199.828 20.7268 201.401 21.088 202.821 21.8053C204.156 22.4883 205.289 23.5101 206.105 24.7684V20.9895H211.789ZM204.053 38.2105C205.28 36.9887 206.011 35.3556 206.105 33.6263V31.9579C206.009 30.2292 205.278 28.5969 204.053 27.3737C203.449 26.7924 202.736 26.3377 201.954 26.0367C201.172 25.7357 200.337 25.5944 199.5 25.621C198.614 25.5914 197.732 25.7538 196.914 26.0972C196.096 26.4406 195.363 26.9569 194.763 27.6105C193.549 29.0541 192.884 30.8797 192.884 32.7658C192.884 34.6519 193.549 36.4775 194.763 37.921C195.361 38.5778 196.094 39.0973 196.912 39.4434C197.729 39.7896 198.613 39.9544 199.5 39.9263C200.335 39.9585 201.168 39.8232 201.949 39.5285C202.732 39.2339 203.447 38.7857 204.053 38.2105ZM181.421 24C183.326 26.1368 184.279 29.1351 184.279 32.9947C184.279 33.7579 184.279 34.3263 184.232 34.7474H166.947C167.227 36.2969 168.058 37.693 169.286 38.6778C170.515 39.6626 172.058 40.1697 173.632 40.1053C174.809 40.1082 175.976 39.8756 177.063 39.421C178.133 38.9577 179.095 38.2786 179.889 37.4263L182.947 40.6263C181.768 41.926 180.314 42.9457 178.689 43.6105C176.923 44.3317 175.029 44.6897 173.121 44.6632C170.924 44.709 168.751 44.1965 166.805 43.1737C165.022 42.2096 163.559 40.7463 162.595 38.9632C161.609 37.0385 161.095 34.9071 161.095 32.7447C161.095 30.5824 161.609 28.4509 162.595 26.5263C163.569 24.7513 165.03 23.2907 166.805 22.3158C168.688 21.2857 170.806 20.7616 172.953 20.7947C176.747 20.8158 179.558 21.8684 181.426 24.021L181.421 24ZM179.005 30.8842C179.016 30.1188 178.871 29.3592 178.578 28.6517C178.286 27.9442 177.853 27.3034 177.305 26.7684C176.729 26.2425 176.054 25.8359 175.319 25.5721C174.585 25.3083 173.806 25.1926 173.026 25.2316C171.492 25.1817 169.996 25.7223 168.847 26.7421C167.686 27.8324 166.951 29.3009 166.774 30.8842H179.005ZM154.953 22.0053C156.394 21.1796 158.028 20.7476 159.689 20.7526V26.3158C158.659 26.1944 157.614 26.2834 156.619 26.5774C155.624 26.8714 154.699 27.3643 153.9 28.0263C153.195 28.6755 152.641 29.4715 152.277 30.3582C151.913 31.2448 151.748 32.2006 151.795 33.1579V44.4789H146.105V20.9895H151.789V25.5158C152.495 24.0586 153.609 22.8374 154.995 22L154.953 22.0053ZM141.795 42.9947C140.051 44.1207 138.023 44.7302 135.947 44.7526C134.133 44.828 132.36 44.198 131 42.9947C129.721 41.8105 129.089 40.0737 129.089 37.7316V15.5105L134.716 14.8368V21.9579H141.411V26.1263H134.737V36.6526C134.653 37.4674 134.868 38.2848 135.342 38.9526C135.581 39.1926 135.868 39.378 136.185 39.4962C136.503 39.6143 136.842 39.6623 137.179 39.6368C138.341 39.557 139.471 39.2285 140.495 38.6737L141.805 42.9684L141.795 42.9947ZM118.584 20.9684H124.211V34.1263C124.211 41.8105 118.874 44.6526 113.453 44.6526C108.032 44.6526 102.695 41.7947 102.695 34.1263V20.9684H108.332V34.3368C108.332 35.695 108.871 36.9976 109.832 37.9579C110.792 38.9184 112.094 39.4579 113.453 39.4579C114.811 39.4579 116.113 38.9184 117.074 37.9579C118.034 36.9976 118.574 35.695 118.574 34.3368L118.584 20.9684ZM91.0211 15.421C92.8237 16.4357 94.4084 17.7956 95.6853 19.4231C96.9621 21.0506 97.9053 22.9138 98.4616 24.9061C99.0179 26.8984 99.1763 28.9808 98.9268 31.0343C98.6779 33.0878 98.0269 35.072 97.0105 36.8737L96.9 37.0737C95.4842 39.471 93.4547 41.4477 91.0211 42.8C88.4784 44.1791 85.6321 44.9015 82.7395 44.9015C79.8468 44.9015 77.0005 44.1791 74.4579 42.8C72.0611 41.4665 70.0563 39.5266 68.6453 37.1745C67.2342 34.8225 66.4658 32.1409 66.4174 29.3985C66.3689 26.656 67.0421 23.949 68.3689 21.5485C69.6963 19.148 71.6305 17.1385 73.979 15.721L74.5053 15.421C77.0558 14.068 79.8995 13.3606 82.7868 13.3606C85.6742 13.3606 88.5179 14.068 91.0684 15.421H91.0211ZM77.6316 20C76.0416 20.9267 74.7221 22.2542 73.8047 23.85C72.8879 25.4458 72.4053 27.2542 72.4053 29.0947C72.4053 30.9353 72.8879 32.7437 73.8047 34.3395C74.7221 35.9353 76.0416 37.2628 77.6316 38.1895C79.2 39.1182 80.9932 39.6005 82.8158 39.5842C84.6147 39.5929 86.3816 39.1107 87.9263 38.1895C89.4863 37.2684 90.7742 35.9498 91.6579 34.3684C92.5695 32.7646 93.0447 30.95 93.0368 29.1053C93.0558 27.2592 92.5795 25.4418 91.6579 23.8421C90.7711 22.274 89.4832 20.9698 87.9263 20.0632C86.3795 19.1476 84.6132 18.6692 82.8158 18.6789C80.9905 18.6714 79.1958 19.1491 77.6158 20.0632L77.6316 20ZM23.6474 0.194733C31.6895 0.194733 43.8421 2.67368 49.5 8.35262C51.6682 10.6043 52.8584 13.6218 52.8105 16.7474C52.8105 24.1158 46.9158 35.3579 40.4105 41.8947C37.0368 45.2737 31.6895 49.6895 24.4895 49.6895C17.4632 49.6895 12.079 44.8895 10.5263 43.3263C4.56316 37.3684 0.294739 28.2526 0.294739 19.7895C0.294739 14.4368 1.81053 9.78947 5.68421 5.87894C9.26842 2.2842 15.4421 0.194733 23.6474 0.194733ZM33.6053 29.4737C35.7063 27.3698 36.9356 24.5502 37.0474 21.5789C37.0612 20.6544 36.8894 19.7365 36.5423 18.8795C36.1951 18.0225 35.6796 17.2438 35.0263 16.5895C33.925 15.472 32.5996 14.6004 31.1373 14.0316C29.6751 13.4628 28.1091 13.2099 26.5421 13.2895C22.6316 13.3 20 14.5368 18.2632 16.3158C17.4274 17.1649 16.7705 18.1729 16.3311 19.2804C15.8917 20.3878 15.679 21.572 15.7053 22.7632C15.8178 25.6439 17.0088 28.3772 19.0421 30.421C20.8247 32.1778 23.2134 33.1838 25.7158 33.2316C28.2632 33.2842 30.8895 32.2158 33.6053 29.4737Z" fill="#65658E"/>
</svg>
