<svg width="233" height="50" viewBox="0 0 233 50" fill="none" xmlns="http://www.w3.org/2000/svg">
<g clip-path="url(#clip0_9_62)">
<mask id="mask0_9_62" style="mask-type:luminance" maskUnits="userSpaceOnUse" x="0" y="0" width="233" height="50">
<path d="M232.353 0H0V50H232.353V0Z" fill="white"/>
</mask>
<g mask="url(#mask0_9_62)">
<path d="M44.2981 16.5694H18.3326C17.8372 16.5694 17.4357 16.9712 17.4357 17.4667V20.4913C17.4357 20.9869 17.8372 21.3887 18.3326 21.3887H44.2981C44.7934 21.3887 45.1948 20.9869 45.1948 20.4913V17.4667C45.1948 16.9712 44.7934 16.5694 44.2981 16.5694Z" fill="#65658E"/>
<path d="M27.1226 28.6113H1.15713C0.661797 28.6113 0.260254 29.0131 0.260254 29.5087V32.5332C0.260254 33.0288 0.661797 33.4306 1.15713 33.4306H27.1226C27.6179 33.4306 28.0194 33.0288 28.0194 32.5332V29.5087C28.0194 29.0131 27.6179 28.6113 27.1226 28.6113Z" fill="#65658E"/>
<path fill-rule="evenodd" clip-rule="evenodd" d="M3.59171 19.8669C3.8195 19.9257 4.06126 19.8931 4.26524 19.7757C4.46921 19.6585 4.61918 19.466 4.68301 19.2394C6.12078 14.7366 9.18807 10.9337 13.2833 8.5765C17.3785 6.21933 22.2061 5.47796 26.8195 6.49783C27.0428 6.54386 27.2751 6.50249 27.4688 6.38226C27.6625 6.26202 27.8028 6.07206 27.8606 5.85149L28.6445 2.92415C28.6753 2.80664 28.6819 2.68414 28.6639 2.56401C28.646 2.44387 28.6041 2.32861 28.5404 2.22514C28.4769 2.12167 28.3931 2.03214 28.2941 1.96193C28.195 1.89173 28.0828 1.84228 27.9641 1.81661C22.1342 0.503679 16.0241 1.43702 10.8515 4.43056C5.67881 7.42412 1.82363 12.258 0.0543907 17.9687C0.0210798 18.0832 0.0109299 18.2032 0.0245344 18.3218C0.0381388 18.4403 0.0752245 18.5549 0.133623 18.659C0.192021 18.7629 0.270559 18.8543 0.364644 18.9275C0.45873 19.0007 0.566474 19.0546 0.681575 19.0857L3.59171 19.8669Z" fill="#65658E"/>
<path fill-rule="evenodd" clip-rule="evenodd" d="M41.8709 30.1205C41.6413 30.0587 41.3967 30.09 41.1901 30.2074C40.9835 30.3249 40.8314 30.5192 40.7669 30.748C39.3323 35.2537 36.2663 39.0602 32.1707 41.4205C28.0751 43.7808 23.2459 44.5243 18.6304 43.5053C18.4072 43.4584 18.1744 43.4994 17.9806 43.6199C17.7867 43.7402 17.6466 43.9306 17.5894 44.1517L16.821 47.0633C16.79 47.1809 16.7829 47.3039 16.8006 47.4243C16.8182 47.5447 16.8601 47.6605 16.9238 47.7643C16.9873 47.8681 17.0714 47.958 17.1707 48.0284C17.27 48.0987 17.3826 48.1483 17.5016 48.174C23.3316 49.4837 29.4407 48.5486 34.6128 45.5549C39.7847 42.5611 43.6401 37.7283 45.4113 32.0187C45.445 31.9043 45.4554 31.7844 45.442 31.6659C45.4285 31.5475 45.3914 31.433 45.3331 31.3292C45.2745 31.2253 45.1959 31.1342 45.1014 31.0614C45.0072 30.9884 44.8992 30.9352 44.7841 30.9049L41.8709 30.1205Z" fill="#65658E"/>
<path d="M36.4519 11.2794C37.9103 11.2794 39.0923 10.0966 39.0923 8.6376C39.0923 7.17857 37.9103 5.99579 36.4519 5.99579C34.9937 5.99579 33.8115 7.17857 33.8115 8.6376C33.8115 10.0966 34.9937 11.2794 36.4519 11.2794Z" fill="#65658E"/>
<path d="M9.00946 44.0009C10.4677 44.0009 11.6499 42.8181 11.6499 41.3591C11.6499 39.9001 10.4677 38.7173 9.00946 38.7173C7.55118 38.7173 6.36902 39.9001 6.36902 41.3591C6.36902 42.8181 7.55118 44.0009 9.00946 44.0009Z" fill="#65658E"/>
<path fill-rule="evenodd" clip-rule="evenodd" d="M109.861 20.2088C110.823 19.151 112 18.3098 113.312 17.7407C114.624 17.1718 116.042 16.8879 117.472 16.9082C120.25 16.9082 122.414 17.7679 123.781 19.4182V18.0503C123.79 17.8612 123.869 17.6822 124.002 17.5476C124.135 17.4132 124.313 17.3329 124.502 17.3223H128.165C128.354 17.3337 128.532 17.4141 128.665 17.5485C128.798 17.6828 128.877 17.8615 128.886 18.0503V38.3972C129 41.2684 128.113 44.0898 126.378 46.3793C124.402 48.7825 121.404 50 117.465 50C111.99 50 107.669 46.5329 106.957 41.5819C106.94 41.4032 106.985 41.2243 107.086 41.0759C107.187 40.9273 107.336 40.819 107.509 40.7693L111.087 39.9284C111.106 39.9269 111.125 39.9269 111.143 39.9284C111.237 39.9141 111.332 39.9185 111.423 39.9413C111.515 39.9641 111.601 40.0048 111.677 40.0612C111.753 40.1175 111.817 40.1882 111.865 40.2694C111.913 40.3506 111.945 40.4404 111.959 40.534C112.118 41.8735 112.772 43.1051 113.792 43.9879C114.811 44.8706 116.124 45.3407 117.472 45.3062C121.749 45.3062 123.743 43.1098 123.743 38.5197V36.7375C122.958 37.6175 121.99 38.3143 120.906 38.7782C119.822 39.2423 118.65 39.4626 117.472 39.4232C111.385 39.4232 106.969 34.695 106.969 28.1876C106.915 25.262 107.945 22.42 109.861 20.2088ZM180.887 16.629H181.078C187.622 16.7168 191.676 21.2756 191.676 28.5704C191.676 28.9572 191.656 29.3437 191.615 29.7282C191.594 29.9004 191.51 30.0593 191.381 30.1748C191.251 30.2903 191.085 30.3547 190.912 30.3557H175.354C175.401 31.927 176.063 33.4168 177.198 34.5034C178.334 35.59 179.851 36.1863 181.422 36.1634C182.653 36.2403 183.873 35.8978 184.884 35.1918C185.894 34.4857 186.637 33.4579 186.988 32.2759C187.054 32.1031 187.184 31.9619 187.35 31.8819C187.516 31.8018 187.707 31.789 187.882 31.846L190.978 32.9443C191.068 32.9734 191.15 33.0212 191.219 33.0845C191.288 33.1478 191.344 33.225 191.382 33.3113C191.425 33.3945 191.45 33.4856 191.456 33.5788C191.463 33.672 191.45 33.7657 191.419 33.8541C190.718 35.9351 189.366 37.7354 187.563 38.9894C185.762 40.2435 183.604 40.885 181.41 40.8194C179.947 40.8337 178.497 40.5576 177.143 40.0072C175.787 39.4568 174.556 38.6429 173.516 37.6129C172.384 36.4206 171.5 35.0137 170.918 33.4748C170.335 31.936 170.066 30.2963 170.126 28.652C170.126 21.1219 175.596 16.6132 180.879 16.6132L180.887 16.629ZM92.8672 16.629C99.5279 16.629 103.667 21.2066 103.667 28.5735C103.667 28.9603 103.646 29.3468 103.605 29.7313C103.586 29.9044 103.504 30.0644 103.374 30.1803C103.244 30.2962 103.076 30.3598 102.902 30.3588H87.3448C87.3883 31.939 88.0547 33.4378 89.1986 34.5281C90.3425 35.6185 91.8708 36.2119 93.4504 36.179C94.681 36.257 95.9017 35.915 96.9128 35.209C97.9239 34.5028 98.6655 33.4743 99.0167 32.2916C99.0798 32.1172 99.2088 31.9745 99.3758 31.8943C99.5429 31.8138 99.7348 31.8022 99.9104 31.8618L103.018 32.9568C103.108 32.9856 103.19 33.0332 103.26 33.0966C103.33 33.1598 103.385 33.2373 103.423 33.3238C103.458 33.4098 103.477 33.502 103.477 33.5953C103.477 33.6884 103.458 33.7806 103.423 33.8666C102.721 35.9466 101.37 37.7462 99.5691 39.0001C97.768 40.2541 95.6123 40.8962 93.4191 40.832C91.9542 40.8478 90.501 40.5725 89.1433 40.022C87.7857 39.4716 86.5508 38.657 85.5103 37.6254C84.3791 36.4316 83.4969 35.0245 82.9148 33.486C82.3328 31.9475 82.0627 30.3085 82.1204 28.6645C82.1204 21.1344 87.5894 16.6259 92.8766 16.6259L92.8672 16.629ZM69.3038 16.629C72.2923 16.629 74.7101 17.3537 76.5007 18.7876C77.71 19.7525 78.6067 21.0538 79.0785 22.5275C79.0933 22.5901 79.0955 22.6551 79.0851 22.7187C79.0747 22.7822 79.0517 22.8431 79.0176 22.8976C78.9835 22.9522 78.9388 22.9994 78.8863 23.0366C78.8338 23.0738 78.7744 23.1001 78.7116 23.1143L75.0017 24.341C74.8372 24.4038 74.6553 24.4038 74.4907 24.341C74.4207 24.3087 74.3583 24.2618 74.308 24.2032C74.2577 24.1448 74.2205 24.0762 74.1989 24.0022C73.8854 22.8004 72.8066 20.7831 69.2976 20.7831C66.8483 20.7831 65.3808 22.1887 65.3808 23.5504C65.3808 24.454 65.848 25.6181 68.0557 26.0385L72.1325 26.804C76.6889 27.7234 79.298 30.2176 79.298 33.6909V33.6313C79.298 37.0826 75.9803 40.7693 69.815 40.7693C62.6651 40.7693 59.8553 36.7218 59.3379 34.3341C59.3207 34.2094 59.3498 34.0828 59.4198 33.9781C59.4897 33.8735 59.5955 33.7981 59.7173 33.7662L63.5432 32.574C63.6116 32.5615 63.6817 32.5615 63.7501 32.574C63.8594 32.572 63.9673 32.5979 64.0636 32.6493C64.133 32.6826 64.1944 32.7309 64.243 32.7904C64.2919 32.8501 64.327 32.9197 64.346 32.9944C64.8289 35.291 66.9017 36.6591 69.8839 36.6591C72.6592 36.6591 73.923 35.2063 73.923 33.8887C73.923 32.5709 72.7972 31.6013 70.8623 31.2123L66.5725 30.3776C62.571 29.6215 60.0779 27.1335 60.0779 23.8956C60.0779 19.9547 64.3083 16.629 69.3038 16.629ZM226.9 10.244C227.094 10.256 227.276 10.3419 227.41 10.4842C227.544 10.6265 227.618 10.8144 227.618 11.0096V17.2847H231.641C231.834 17.299 232.015 17.3857 232.147 17.5278C232.279 17.6697 232.353 17.8563 232.353 18.0503V21.3948C232.354 21.5851 232.279 21.7681 232.146 21.9038C232.013 22.0395 231.831 22.1172 231.641 22.1197H227.618V33.2862C227.618 35.1373 228.351 35.9029 230.24 35.9029C230.669 35.8957 231.1 35.86 231.525 35.7962C231.628 35.7787 231.734 35.7838 231.834 35.8115C231.935 35.8391 232.029 35.8885 232.109 35.9563C232.184 36.0269 232.246 36.1122 232.287 36.2072C232.329 36.3022 232.351 36.4047 232.353 36.5085V39.646C232.354 39.8022 232.304 39.9544 232.212 40.08C232.119 40.2056 231.988 40.2978 231.838 40.3425C230.921 40.6001 229.971 40.7237 229.016 40.7097C224.984 40.7097 222.484 38.1148 222.484 33.9294V22.1668H219.003C218.815 22.1553 218.637 22.0747 218.504 21.9403C218.372 21.806 218.294 21.6273 218.285 21.4388V18.0879C218.284 17.8925 218.357 17.7043 218.491 17.5618C218.625 17.4193 218.809 17.3335 219.003 17.3223H219.906C221.001 17.3223 222.844 16.9395 222.844 14.3291V11.0096C222.844 10.8142 222.918 10.6259 223.051 10.4834C223.185 10.341 223.368 10.2553 223.563 10.244H226.9ZM151.387 20.369C152.173 19.1662 153.259 18.189 154.537 17.5332C155.816 16.8775 157.243 16.5659 158.678 16.629C162.654 16.629 166.671 19.4307 166.671 25.5522V39.7213C166.662 39.9101 166.582 40.0888 166.45 40.2231C166.316 40.3573 166.138 40.4379 165.95 40.4493H162.284C162.096 40.4372 161.919 40.3563 161.787 40.222C161.654 40.0879 161.575 39.9097 161.566 39.7213V26.007C161.566 24.272 161.023 21.3478 157.351 21.3478C154.666 21.3478 152.76 23.4594 152.76 26.5216V39.7213C152.751 39.9098 152.673 40.0885 152.54 40.2228C152.407 40.3572 152.231 40.4378 152.043 40.4493H148.329C148.14 40.4379 147.963 40.3573 147.829 40.2231C147.697 40.0888 147.618 39.9101 147.607 39.7213V26.007C147.615 24.272 147.075 21.3353 143.399 21.3353C140.608 21.3353 138.727 23.4312 138.727 26.5531V39.7213C138.717 39.9097 138.639 40.0879 138.506 40.222C138.374 40.3563 138.197 40.4372 138.009 40.4493H134.346C134.159 40.4363 133.983 40.3551 133.852 40.2209C133.72 40.0866 133.643 39.9088 133.634 39.7213V18.0032C133.644 17.8159 133.721 17.6384 133.852 17.5044C133.983 17.3703 134.159 17.2888 134.346 17.2753H137.871C138.059 17.2873 138.236 17.3682 138.368 17.5023C138.501 17.6366 138.579 17.8148 138.589 18.0032V19.3116C139.374 18.4522 140.332 17.7688 141.4 17.3065C142.468 16.8441 143.622 16.6132 144.785 16.629C146.122 16.5898 147.444 16.9176 148.607 17.5769C149.772 18.2363 150.732 19.2019 151.387 20.369ZM207.241 16.629C208.413 16.5788 209.581 16.7959 210.657 17.264C211.734 17.7319 212.69 18.4385 213.453 19.3304C214.876 21.2056 215.601 23.5194 215.5 25.8722V39.7213C215.493 39.9085 215.416 40.0863 215.285 40.2206C215.154 40.3548 214.979 40.4363 214.791 40.4493H211.082C210.894 40.4372 210.716 40.3565 210.584 40.2223C210.45 40.0882 210.371 39.91 210.36 39.7213V26.6126C210.36 23.1832 208.748 21.4388 205.688 21.4388C205.022 21.4173 204.36 21.5529 203.756 21.8347C203.151 22.1165 202.622 22.5366 202.21 23.0609C201.381 24.255 200.962 25.6865 201.016 27.1397V39.7213C201.006 39.9097 200.928 40.0879 200.796 40.222C200.663 40.3563 200.485 40.4372 200.297 40.4493H196.594C196.406 40.4372 196.229 40.3563 196.097 40.222C195.965 40.0879 195.885 39.9097 195.876 39.7213V17.9875C195.884 17.7981 195.962 17.6184 196.094 17.4832C196.226 17.3481 196.404 17.2672 196.594 17.2565H200.213C200.4 17.2685 200.576 17.3493 200.707 17.4829C200.838 17.6166 200.916 17.794 200.925 17.9812V19.5123C201.691 18.5862 202.659 17.8457 203.753 17.3463C204.846 16.8469 206.038 16.6018 207.241 16.629ZM118.108 21.4859C114.496 21.4859 112.203 24.0556 112.203 28.1876C112.203 32.3198 114.467 34.8863 118.108 34.8863C121.58 34.8863 123.919 32.1912 123.919 28.1876C123.919 24.1841 121.58 21.4859 118.108 21.4859ZM92.9048 21.2788C91.5719 21.2557 90.2782 21.7312 89.2772 22.612C88.2761 23.4929 87.6395 24.7159 87.4922 26.0416H98.3738C98.1135 23.1018 96.025 21.2788 92.9048 21.2788ZM180.946 21.2788C179.615 21.2581 178.322 21.7344 177.323 22.6151C176.323 23.4957 175.687 24.7173 175.54 26.0416H186.423C186.154 23.1018 184.078 21.2788 180.943 21.2788H180.946Z" fill="#65658E"/>
<path d="M65.4748 1.94212V9.24006H63.4084V1.94212H60.5515V0.172546H68.3631V1.94212H65.4748Z" fill="#65658E"/>
<path d="M81.2612 9.27144H79.1129L77.1437 2.58846L75.1398 9.27144H73.0356L70.37 0.172546H72.5651L74.2554 6.72688L76.1621 0.172546H78.3572L80.2388 6.72688L81.8757 0.172546H83.8953L81.2612 9.27144Z" fill="#65658E"/>
<path d="M86.7395 9.24006V0.172546H88.7748V9.24006H86.7395Z" fill="#65658E"/>
<path d="M92.4374 9.24006V0.172546H94.5041V7.4548H98.0414V9.24006H92.4374Z" fill="#65658E"/>
<path d="M101.121 9.24006V0.172546H103.172V9.24006H101.121Z" fill="#65658E"/>
<path d="M110.845 9.41258C108.337 9.41258 106.33 7.61164 106.33 4.72195C106.33 1.83227 108.365 0.015625 110.861 0.015625C113.357 0.015625 115.374 1.81658 115.374 4.72195C115.374 7.62732 113.354 9.41258 110.845 9.41258ZM110.845 1.67539C109.277 1.67539 108.365 2.96807 108.365 4.70626C108.365 6.44446 109.306 7.75282 110.845 7.75282C112.385 7.75282 113.291 6.42877 113.291 4.72195C113.291 3.01512 112.376 1.67539 110.861 1.67539H110.845Z" fill="#65658E"/>
</g>
</g>
<defs>
<clipPath id="clip0_9_62">
<rect width="232.353" height="50" fill="white"/>
</clipPath>
</defs>
</svg>
