<svg width="127" height="50" viewBox="0 0 127 50" fill="none" xmlns="http://www.w3.org/2000/svg">
<path d="M44.9847 40.8459V21.1658C44.832 17.6645 42.3941 15.0643 38.9379 14.3808C37.3413 14.0658 35.6838 13.972 34.0489 13.9252C31.521 13.8523 28.9926 13.9051 26.3328 13.9051V5.31549H20.403V40.832H26.403V18.5967C29.3262 18.5967 32.147 18.5112 34.958 18.6279C36.6978 18.7023 38.0318 19.692 38.5385 21.3693C38.9105 22.602 39.1209 23.9279 39.1395 25.215C39.2071 30.0245 39.1668 40.4093 39.1668 40.8459H44.9847ZM54.2313 40.8576C54.2313 39.1504 54.2089 30.9845 54.2313 26.2088C54.2363 25.2606 54.338 24.3013 54.4692 23.36C54.8891 20.3426 56.4662 18.8504 59.5268 18.5738C60.7554 18.4618 61.9954 18.4475 63.2543 18.3889V13.9109C60.3154 13.9637 57.4201 13.6589 54.5868 14.4377C51.3483 15.3277 49.2388 17.3237 48.6185 20.6589C48.4029 21.7989 48.2878 22.9697 48.2806 24.1291V40.8576H54.2313Z" fill="#65658E"/>
<path d="M13.2885 36.2109C10.2298 35.9323 8.65402 34.4419 8.23089 31.4244C8.10035 30.4816 7.99905 29.5244 7.99326 28.5737C7.98651 26.6923 7.98908 22.7236 7.99326 18.5974H16.8681V14.0242H8.00033C8.00484 9.39909 8.01094 5.52141 7.99326 5.43359H2.04205C2.02243 5.74859 2.00604 25.3895 2.04205 30.6566C2.05265 31.8153 2.16777 32.9859 2.38063 34.1266C3.00151 37.462 5.11298 39.4578 8.35176 40.3463C11.1851 41.1263 14.0769 40.8219 17.0193 40.8738V36.3929C15.7576 36.3357 14.5188 36.3219 13.2885 36.2109Z" fill="#65658E"/>
<path d="M96.8452 13.9263H102.475C102.785 13.9263 103.22 14.3909 103.35 14.7248C105.732 20.8498 111.091 34.8045 111.359 35.4359C112.032 34.1032 117.043 21.1554 119.444 14.774C119.701 14.0934 120.022 13.9 120.75 13.9H125.919C125.815 14.2442 118.984 30.7241 115.671 38.7227C114.996 40.3538 113.894 41.2366 112.085 41.1779C111.691 41.1667 111.297 41.1625 110.904 41.1779C109.007 41.2563 107.855 40.3367 107.151 38.6291C104.551 32.3245 97.7037 15.9913 96.8452 13.9263Z" fill="#65658E"/>
<path d="M72.8134 49.6596C74.6336 49.6596 76.304 49.6269 77.9738 49.6757C78.6741 49.6969 79.0165 49.5005 79.3206 48.8294C84.4037 37.6084 89.5241 26.4021 94.6334 15.1907C94.7995 14.8295 94.9329 14.4544 95.1207 13.992C93.2427 13.992 91.5306 14.0171 89.8183 13.9774C89.2237 13.9637 88.9449 14.1686 88.7119 14.7025C87.3717 17.7762 85.9949 20.8333 84.6273 23.8966C83.0423 27.4391 81.4556 30.9784 79.8052 34.6666C79.3702 33.655 78.9911 32.788 78.6236 31.9171C76.2203 26.2271 73.8265 20.5345 71.4054 14.8549C71.2628 14.5219 70.9131 14.0416 70.6441 14.0319C68.7629 13.9608 66.8782 13.9936 64.8983 13.9936C65.0052 14.2937 65.0584 14.4912 65.1417 14.6754C68.7861 22.7516 72.4036 30.8407 76.1099 38.8882C76.7298 40.2365 76.9002 41.3171 76.1373 42.694C74.9124 44.9057 73.9444 47.2548 72.8134 49.6596Z" fill="#65658E"/>
<path d="M125.921 10.9851L113.895 5.59161L103.16 0.771476C102.556 0.501022 101.872 0.938522 101.872 1.59461V4.67016C101.872 5.14203 101.505 5.53307 101.031 5.56998L69.8486 8.04226L32.7117 10.9851H125.921Z" fill="#65658E"/>
<path d="M117.993 41.3714C118.128 41.4512 118.399 41.5241 118.663 41.5241C119.298 41.5241 119.599 41.1864 119.599 40.7907C119.599 40.4424 119.394 40.2278 118.965 40.0641C118.634 39.9405 118.491 39.8537 118.491 39.6646C118.491 39.5191 118.612 39.3703 118.898 39.3703C119.13 39.3703 119.302 39.4393 119.394 39.4866L119.5 39.1278C119.372 39.0624 119.177 39.0043 118.91 39.0043C118.37 39.0043 118.033 39.305 118.033 39.7084C118.033 40.0574 118.293 40.2749 118.704 40.4164C119.016 40.5293 119.141 40.6382 119.141 40.8234C119.141 41.0232 118.979 41.1575 118.693 41.1575C118.462 41.1575 118.238 41.085 118.095 41.0012L117.993 41.3714ZM122.142 41.4878H122.582L122.44 39.0403H121.852L121.511 40.0203C121.416 40.3075 121.331 40.6089 121.265 40.8739H121.254C121.192 40.6016 121.115 40.3107 121.027 40.0241L120.704 39.0403H120.109L119.944 41.4878H120.366L120.421 40.5037C120.44 40.1691 120.454 39.7806 120.466 39.4612H120.473C120.539 39.7664 120.627 40.1003 120.722 40.413L121.052 41.4584H121.397L121.761 40.3982C121.871 40.0893 121.973 39.7591 122.054 39.4612H122.066C122.061 39.795 122.08 40.173 122.094 40.4889L122.142 41.4878Z" fill="#65658E"/>
</svg>
