<svg width="222" height="50" viewBox="0 0 222 50" fill="none" xmlns="http://www.w3.org/2000/svg">
<g clip-path="url(#clip0_9_87)">
<mask id="mask0_9_87" style="mask-type:luminance" maskUnits="userSpaceOnUse" x="0" y="0" width="222" height="50">
<path d="M221.667 0H0V50H221.667V0Z" fill="white"/>
</mask>
<g mask="url(#mask0_9_87)">
<path d="M187.425 39.1162H181.658V13.268H187.425V17.9287C194.707 10.7859 199.825 11.0536 204.258 18.6072C206.24 15.2144 208.817 12.6966 213.08 12.8127C217.342 12.9287 220.775 15.7233 221.008 20.125C221.342 26.375 221.09 32.7234 221.09 39.1519H215.268C215.268 38.4019 215.268 37.6162 215.268 36.8394C215.268 32.3037 215.342 27.7679 215.178 23.2412C215.107 21.134 215.062 18.7769 212.287 18.0449C210.197 17.509 207.718 18.7232 206.203 20.9912C204.24 23.9465 204.15 27.2857 204.203 30.6519C204.203 33.4644 204.203 36.2679 204.203 39.1697H198.347C198.347 36.5357 198.347 33.9555 198.347 31.3752C198.347 28.3305 198.283 25.2769 198.167 22.2322C198.095 20.5715 197.807 18.9107 195.932 18.2144C195.08 17.9017 194.155 17.8372 193.267 18.0287C192.38 18.22 191.565 18.6594 190.922 19.2949C188.29 21.5537 187.47 24.6519 187.417 27.9107C187.362 31.6072 187.425 35.3037 187.425 39.1162Z" fill="#65658E"/>
<path d="M62.1749 36.8659V49.3659H56.5341V13.3927H62.1117L62.3101 15.7498C64.2744 14.857 66.1937 13.3659 68.3112 12.9998C73.8619 12.0534 78.7277 15.2766 80.0254 20.9552C80.7257 23.9809 80.8389 27.1109 80.3587 30.1784C78.9711 38.7677 69.1402 42.4642 62.1749 36.8659ZM61.9316 26.3659C62.1971 27.9199 62.5612 29.4557 63.0219 30.9642C63.3352 31.9277 63.9416 32.7717 64.7579 33.3807C65.5741 33.9897 66.5602 34.3337 67.5814 34.3659C69.9962 34.5445 72.0867 33.8749 73.3032 31.6874C74.2109 30.0969 74.7141 28.3112 74.7689 26.4849C74.8239 24.6585 74.4291 22.8465 73.6186 21.2052C73.1171 20.1125 72.2746 19.2087 71.2151 18.6267C70.1556 18.0447 68.9354 17.8157 67.7346 17.973C66.5622 18.0217 65.4374 18.4469 64.5304 19.1847C63.6234 19.9224 62.9831 20.9324 62.7066 22.0624C62.3561 23.4814 62.0824 24.918 61.8866 26.3659H61.9316Z" fill="#65658E"/>
<path d="M24.6087 13.1427C26.5337 13.0518 28.4624 13.0756 30.3845 13.2141C30.7712 13.3482 31.125 13.5613 31.4232 13.8397C31.7212 14.1182 31.9569 14.4556 32.1147 14.8302C34.4124 20.1427 36.62 25.5445 39.035 31.3392C40.3595 27.7678 41.522 24.7232 42.6844 21.616C43.5404 19.3213 44.4865 17.0445 45.1984 14.7052C45.2415 14.4333 45.3399 14.1728 45.4874 13.9396C45.6349 13.7063 45.8287 13.5052 46.057 13.3483C46.2852 13.1914 46.5432 13.082 46.8154 13.0267C47.0875 12.9714 47.3682 12.9714 47.6404 13.0266C49.1092 13.1338 50.5959 13.0266 52.5152 13.0266C51.4609 15.5445 50.5689 17.7052 49.6587 19.8658C46.3067 27.8033 43.0087 35.7767 39.5667 43.6873C36.638 50.4373 29.3844 51.6338 24.077 46.1248L26.7802 42.4998C27.0415 42.5652 27.293 42.6642 27.5282 42.7945C28.8797 43.848 30.4837 45.5177 32.0335 44.2498C33.5834 42.982 34.6557 40.7498 35.71 38.8392C35.9534 38.4017 35.3405 37.4642 35.0432 36.7945C31.628 29.0623 28.213 21.3123 24.6087 13.1427Z" fill="#65658E"/>
<path d="M143.083 12.7859C144.853 12.7619 146.609 13.0973 148.244 13.7714C149.878 14.4455 151.355 15.444 152.585 16.7054C153.815 17.9669 154.772 19.4644 155.396 21.106C156.019 22.7475 156.297 24.4982 156.212 26.2502C156.077 33.9465 150.373 39.643 142.84 39.509C135.307 39.3752 129.756 33.6252 129.918 25.893C130.081 18.1609 135.514 12.7144 143.083 12.7859ZM136.064 26.7859C136.198 27.7614 136.394 28.7275 136.649 29.6787C137.007 31.0185 137.801 32.2042 138.907 33.053C140.012 33.9019 141.369 34.3664 142.768 34.3752C145.886 34.4555 148.481 32.9734 149.184 29.9109C149.684 27.4747 149.721 24.9675 149.292 22.518C149.08 21.4489 148.549 20.4674 147.769 19.7002C146.988 18.933 145.993 18.4155 144.912 18.2144C139.848 16.9019 136.001 20.3574 136.064 26.7859Z" fill="#65658E"/>
<path d="M92.28 29.8484C94.1813 35.4912 98.858 35.7412 106.274 30.8037L108.878 34.2859C105.904 38.5002 100.183 40.4645 94.803 39.2145C92.4017 38.5865 90.2427 37.263 88.6042 35.4133C86.9653 33.5637 85.9205 31.2717 85.603 28.8305C84.9182 23.9377 85.8553 19.5002 89.6398 15.9734C91.4862 14.2642 93.8343 13.1838 96.3438 12.8899C98.8525 12.596 101.391 13.1038 103.589 14.3395C108.932 17.5537 108.896 24.5092 103.318 27.2859C100.976 28.4555 98.2092 28.8217 95.614 29.4734C94.5112 29.6658 93.3983 29.791 92.28 29.8484ZM91.5592 25.9287C94.1272 25.4467 96.488 25.1787 98.7678 24.5359C101.048 23.893 102.291 21.7948 101.678 20.0002C101.138 18.402 98.975 17.5895 96.6953 18.1252C93.5145 18.893 91.8205 21.2858 91.5592 25.893V25.9287Z" fill="#65658E"/>
<path d="M17.481 39.1072H11.2546V8.49114H0.504639V2.83936H28.0417V8.33936H17.481V39.1072Z" fill="#65658E"/>
<path d="M121.448 39.0984H115.627V18.5179L112.176 18.2412V13.3037L115.474 12.9644C115.618 8.61617 114.996 3.8751 119.835 1.43761C122.701 -0.0088242 125.746 0.107246 129.062 1.24118L127.954 5.47332C125.818 5.84832 123.169 5.56259 122.358 6.63402C121.241 8.11617 121.457 10.6251 121.097 13.0804H126.936V18.3125H121.412L121.448 39.0984Z" fill="#65658E"/>
<path d="M167.35 39.1427H161.51V13.3926H167.197V18.1159C170.043 14.5444 173.107 12.0533 178.117 13.098C177.857 14.9998 177.603 16.8034 177.342 18.6872C177.047 18.7615 176.745 18.8092 176.442 18.8302C171.035 18.6159 168.178 20.839 167.628 26.2587C167.277 29.6515 167.44 33.0802 167.377 36.4909C167.332 37.3122 167.35 38.1872 167.35 39.1427Z" fill="#65658E"/>
</g>
</g>
<defs>
<clipPath id="clip0_9_87">
<rect width="221.667" height="50" fill="white"/>
</clipPath>
</defs>
</svg>
