<svg width="134" height="50" viewBox="0 0 134 50" fill="none" xmlns="http://www.w3.org/2000/svg">
<mask id="mask0_9_100" style="mask-type:luminance" maskUnits="userSpaceOnUse" x="0" y="0" width="134" height="50">
<path d="M133.721 0H0V50H133.721V0Z" fill="white"/>
</mask>
<g mask="url(#mask0_9_100)">
<path d="M20.6459 11.9294L10.3215 5.96471L0 11.9294V5.96471L10.323 0L20.6474 5.96471V11.9294H20.6459Z" fill="#65658E"/>
<path d="M0 16.9383H5.40762V30.0867C5.40762 33.4838 7.94244 35.1396 10.323 35.1396C12.7241 35.1396 15.2398 33.4396 15.2398 30.0412V16.9383H20.6474V30.4C20.6474 33.5294 19.6643 35.9441 17.6981 37.6C15.7306 39.2544 13.2736 40.0602 10.2774 40.0602C7.28412 40.0602 4.82571 39.2558 2.90513 37.6C0.98307 35.9456 0 33.6206 0 30.5338V16.9383ZM67.3983 33.2794C65.7613 34.7383 63.8965 35.4529 61.7702 35.4529C57.8909 35.4529 55.2899 33.2412 54.996 29.8162H72.4679C72.4679 29.8162 72.5855 28.7102 72.5855 27.672C72.5855 24.4514 71.5569 21.7677 69.4556 19.5764C67.4013 17.3852 64.7209 16.3117 61.4572 16.3117C58.0172 16.3117 55.2003 17.3852 52.9652 19.5764C50.7757 21.7677 49.659 24.6294 49.659 28.2088V28.3852C49.659 31.9191 50.7757 34.7367 52.9652 36.8396C55.1548 38.9412 58.0599 40.0146 61.5909 40.0146C65.6966 40.0146 68.9633 38.3941 71.4143 35.6L67.3983 33.2794ZM57.1209 22.3044C58.3258 21.3646 59.8027 20.8735 61.4558 20.8735C63.0193 20.8735 64.3153 21.3646 65.4336 22.35C66.5005 23.247 67.0765 24.3485 67.1264 25.6146H55.1342C55.3076 24.3058 55.9688 23.2029 57.1223 22.3058L57.1209 22.3044ZM121.833 43.0529C119.64 48.2367 117.344 50 113.824 50H111.385V45.2029H113.357C114.568 45.2029 115.694 44.747 116.766 42.2706L117.84 39.7912L108.587 16.9383H114.085L120.655 33.397L127.403 16.9383H132.9L121.835 43.0529H121.833ZM41.6988 8.30731V18.9794C39.9267 17.3912 37.17 16.4456 34.5044 16.4456C31.3303 16.4456 28.6501 17.5633 26.4606 19.8427C24.3151 22.0794 23.2424 24.8514 23.2424 28.2058C23.2424 31.5617 24.3151 34.3338 26.4606 36.6146C28.6501 38.8514 31.3319 39.9706 34.5044 39.9706C38.1634 39.9706 40.4763 38.5308 41.6988 37.4029V39.4779H47.0624V8.30878H41.6988V8.30731ZM40.0899 33.1279C38.7937 34.425 37.1406 35.097 35.2186 35.097C33.2965 35.097 31.733 34.425 30.437 33.1279C29.1879 31.8308 28.5605 30.1764 28.5605 28.2088C28.5605 26.2396 29.1864 24.5852 30.437 23.2883C31.733 21.9912 33.2965 21.3206 35.2186 21.3206C37.1406 21.3206 38.7937 21.9912 40.0899 23.2883C41.43 24.5852 42.103 26.2396 42.103 28.2088C42.103 30.1764 41.43 31.8308 40.0899 33.1279ZM100.25 16.4912C96.1762 16.4912 94.0587 18.1823 92.6084 19.8117C92.0279 18.7044 90.3938 16.4912 86.5763 16.4912C83.3493 16.4912 81.4478 18.1235 80.4985 19.2852V16.9412H75.182V39.4808H80.4985V26.5102C80.4985 23.4691 82.3765 21.2779 84.8776 21.2779C87.4271 21.2779 88.9009 23.2014 88.9009 26.2867V39.4794H94.2188V26.5088C94.2188 23.4235 96.0499 21.2764 98.686 21.2764C101.234 21.2764 102.708 23.2 102.708 26.2838V39.4779H108.072V25.525C108.072 19.6485 104.915 16.4927 100.25 16.4927V16.4912Z" fill="#65658E"/>
</g>
</svg>
